%TF.GenerationSoftware,KiCad,Pcbnew,9.0.0*%
%TF.CreationDate,2025-04-14T20:17:52-07:00*%
%TF.ProjectId,AudioVision_v1,41756469-6f56-4697-9369-6f6e5f76312e,rev?*%
%TF.SameCoordinates,Original*%
%TF.FileFunction,Legend,Bot*%
%TF.FilePolarity,Positive*%
%FSLAX46Y46*%
G04 Gerber Fmt 4.6, Leading zero omitted, Abs format (unit mm)*
G04 Created by KiCad (PCBNEW 9.0.0) date 2025-04-14 20:17:52*
%MOMM*%
%LPD*%
G01*
G04 APERTURE LIST*
%ADD10C,0.125000*%
%ADD11C,0.240000*%
G04 APERTURE END LIST*
D10*
X178474906Y-73354452D02*
X178236811Y-74021119D01*
X178236811Y-74021119D02*
X177998716Y-73354452D01*
X177617763Y-74021119D02*
X177617763Y-73354452D01*
X177617763Y-73021119D02*
X177665382Y-73068738D01*
X177665382Y-73068738D02*
X177617763Y-73116357D01*
X177617763Y-73116357D02*
X177570144Y-73068738D01*
X177570144Y-73068738D02*
X177617763Y-73021119D01*
X177617763Y-73021119D02*
X177617763Y-73116357D01*
X176713002Y-74021119D02*
X176713002Y-73021119D01*
X176713002Y-73973500D02*
X176808240Y-74021119D01*
X176808240Y-74021119D02*
X176998716Y-74021119D01*
X176998716Y-74021119D02*
X177093954Y-73973500D01*
X177093954Y-73973500D02*
X177141573Y-73925880D01*
X177141573Y-73925880D02*
X177189192Y-73830642D01*
X177189192Y-73830642D02*
X177189192Y-73544928D01*
X177189192Y-73544928D02*
X177141573Y-73449690D01*
X177141573Y-73449690D02*
X177093954Y-73402071D01*
X177093954Y-73402071D02*
X176998716Y-73354452D01*
X176998716Y-73354452D02*
X176808240Y-73354452D01*
X176808240Y-73354452D02*
X176713002Y-73402071D01*
X175855859Y-73973500D02*
X175951097Y-74021119D01*
X175951097Y-74021119D02*
X176141573Y-74021119D01*
X176141573Y-74021119D02*
X176236811Y-73973500D01*
X176236811Y-73973500D02*
X176284430Y-73878261D01*
X176284430Y-73878261D02*
X176284430Y-73497309D01*
X176284430Y-73497309D02*
X176236811Y-73402071D01*
X176236811Y-73402071D02*
X176141573Y-73354452D01*
X176141573Y-73354452D02*
X175951097Y-73354452D01*
X175951097Y-73354452D02*
X175855859Y-73402071D01*
X175855859Y-73402071D02*
X175808240Y-73497309D01*
X175808240Y-73497309D02*
X175808240Y-73592547D01*
X175808240Y-73592547D02*
X176284430Y-73687785D01*
X175236811Y-74021119D02*
X175332049Y-73973500D01*
X175332049Y-73973500D02*
X175379668Y-73925880D01*
X175379668Y-73925880D02*
X175427287Y-73830642D01*
X175427287Y-73830642D02*
X175427287Y-73544928D01*
X175427287Y-73544928D02*
X175379668Y-73449690D01*
X175379668Y-73449690D02*
X175332049Y-73402071D01*
X175332049Y-73402071D02*
X175236811Y-73354452D01*
X175236811Y-73354452D02*
X175093954Y-73354452D01*
X175093954Y-73354452D02*
X174998716Y-73402071D01*
X174998716Y-73402071D02*
X174951097Y-73449690D01*
X174951097Y-73449690D02*
X174903478Y-73544928D01*
X174903478Y-73544928D02*
X174903478Y-73830642D01*
X174903478Y-73830642D02*
X174951097Y-73925880D01*
X174951097Y-73925880D02*
X174998716Y-73973500D01*
X174998716Y-73973500D02*
X175093954Y-74021119D01*
X175093954Y-74021119D02*
X175236811Y-74021119D01*
X173570144Y-74021119D02*
X173665382Y-73973500D01*
X173665382Y-73973500D02*
X173713001Y-73925880D01*
X173713001Y-73925880D02*
X173760620Y-73830642D01*
X173760620Y-73830642D02*
X173760620Y-73544928D01*
X173760620Y-73544928D02*
X173713001Y-73449690D01*
X173713001Y-73449690D02*
X173665382Y-73402071D01*
X173665382Y-73402071D02*
X173570144Y-73354452D01*
X173570144Y-73354452D02*
X173427287Y-73354452D01*
X173427287Y-73354452D02*
X173332049Y-73402071D01*
X173332049Y-73402071D02*
X173284430Y-73449690D01*
X173284430Y-73449690D02*
X173236811Y-73544928D01*
X173236811Y-73544928D02*
X173236811Y-73830642D01*
X173236811Y-73830642D02*
X173284430Y-73925880D01*
X173284430Y-73925880D02*
X173332049Y-73973500D01*
X173332049Y-73973500D02*
X173427287Y-74021119D01*
X173427287Y-74021119D02*
X173570144Y-74021119D01*
X172903477Y-73354452D02*
X172665382Y-74021119D01*
X172665382Y-74021119D02*
X172427287Y-73354452D01*
X171665382Y-73973500D02*
X171760620Y-74021119D01*
X171760620Y-74021119D02*
X171951096Y-74021119D01*
X171951096Y-74021119D02*
X172046334Y-73973500D01*
X172046334Y-73973500D02*
X172093953Y-73878261D01*
X172093953Y-73878261D02*
X172093953Y-73497309D01*
X172093953Y-73497309D02*
X172046334Y-73402071D01*
X172046334Y-73402071D02*
X171951096Y-73354452D01*
X171951096Y-73354452D02*
X171760620Y-73354452D01*
X171760620Y-73354452D02*
X171665382Y-73402071D01*
X171665382Y-73402071D02*
X171617763Y-73497309D01*
X171617763Y-73497309D02*
X171617763Y-73592547D01*
X171617763Y-73592547D02*
X172093953Y-73687785D01*
X171189191Y-74021119D02*
X171189191Y-73354452D01*
X171189191Y-73544928D02*
X171141572Y-73449690D01*
X171141572Y-73449690D02*
X171093953Y-73402071D01*
X171093953Y-73402071D02*
X170998715Y-73354452D01*
X170998715Y-73354452D02*
X170903477Y-73354452D01*
X170427286Y-74021119D02*
X170522524Y-73973500D01*
X170522524Y-73973500D02*
X170570143Y-73878261D01*
X170570143Y-73878261D02*
X170570143Y-73021119D01*
X169617762Y-74021119D02*
X169617762Y-73497309D01*
X169617762Y-73497309D02*
X169665381Y-73402071D01*
X169665381Y-73402071D02*
X169760619Y-73354452D01*
X169760619Y-73354452D02*
X169951095Y-73354452D01*
X169951095Y-73354452D02*
X170046333Y-73402071D01*
X169617762Y-73973500D02*
X169713000Y-74021119D01*
X169713000Y-74021119D02*
X169951095Y-74021119D01*
X169951095Y-74021119D02*
X170046333Y-73973500D01*
X170046333Y-73973500D02*
X170093952Y-73878261D01*
X170093952Y-73878261D02*
X170093952Y-73783023D01*
X170093952Y-73783023D02*
X170046333Y-73687785D01*
X170046333Y-73687785D02*
X169951095Y-73640166D01*
X169951095Y-73640166D02*
X169713000Y-73640166D01*
X169713000Y-73640166D02*
X169617762Y-73592547D01*
X169236809Y-73354452D02*
X168998714Y-74021119D01*
X168760619Y-73354452D02*
X168998714Y-74021119D01*
X168998714Y-74021119D02*
X169093952Y-74259214D01*
X169093952Y-74259214D02*
X169141571Y-74306833D01*
X169141571Y-74306833D02*
X169236809Y-74354452D01*
X167617761Y-74021119D02*
X167617761Y-73021119D01*
X167617761Y-73402071D02*
X167522523Y-73354452D01*
X167522523Y-73354452D02*
X167332047Y-73354452D01*
X167332047Y-73354452D02*
X167236809Y-73402071D01*
X167236809Y-73402071D02*
X167189190Y-73449690D01*
X167189190Y-73449690D02*
X167141571Y-73544928D01*
X167141571Y-73544928D02*
X167141571Y-73830642D01*
X167141571Y-73830642D02*
X167189190Y-73925880D01*
X167189190Y-73925880D02*
X167236809Y-73973500D01*
X167236809Y-73973500D02*
X167332047Y-74021119D01*
X167332047Y-74021119D02*
X167522523Y-74021119D01*
X167522523Y-74021119D02*
X167617761Y-73973500D01*
X166284428Y-74021119D02*
X166284428Y-73497309D01*
X166284428Y-73497309D02*
X166332047Y-73402071D01*
X166332047Y-73402071D02*
X166427285Y-73354452D01*
X166427285Y-73354452D02*
X166617761Y-73354452D01*
X166617761Y-73354452D02*
X166712999Y-73402071D01*
X166284428Y-73973500D02*
X166379666Y-74021119D01*
X166379666Y-74021119D02*
X166617761Y-74021119D01*
X166617761Y-74021119D02*
X166712999Y-73973500D01*
X166712999Y-73973500D02*
X166760618Y-73878261D01*
X166760618Y-73878261D02*
X166760618Y-73783023D01*
X166760618Y-73783023D02*
X166712999Y-73687785D01*
X166712999Y-73687785D02*
X166617761Y-73640166D01*
X166617761Y-73640166D02*
X166379666Y-73640166D01*
X166379666Y-73640166D02*
X166284428Y-73592547D01*
X165855856Y-73973500D02*
X165760618Y-74021119D01*
X165760618Y-74021119D02*
X165570142Y-74021119D01*
X165570142Y-74021119D02*
X165474904Y-73973500D01*
X165474904Y-73973500D02*
X165427285Y-73878261D01*
X165427285Y-73878261D02*
X165427285Y-73830642D01*
X165427285Y-73830642D02*
X165474904Y-73735404D01*
X165474904Y-73735404D02*
X165570142Y-73687785D01*
X165570142Y-73687785D02*
X165712999Y-73687785D01*
X165712999Y-73687785D02*
X165808237Y-73640166D01*
X165808237Y-73640166D02*
X165855856Y-73544928D01*
X165855856Y-73544928D02*
X165855856Y-73497309D01*
X165855856Y-73497309D02*
X165808237Y-73402071D01*
X165808237Y-73402071D02*
X165712999Y-73354452D01*
X165712999Y-73354452D02*
X165570142Y-73354452D01*
X165570142Y-73354452D02*
X165474904Y-73402071D01*
X164617761Y-73973500D02*
X164712999Y-74021119D01*
X164712999Y-74021119D02*
X164903475Y-74021119D01*
X164903475Y-74021119D02*
X164998713Y-73973500D01*
X164998713Y-73973500D02*
X165046332Y-73878261D01*
X165046332Y-73878261D02*
X165046332Y-73497309D01*
X165046332Y-73497309D02*
X164998713Y-73402071D01*
X164998713Y-73402071D02*
X164903475Y-73354452D01*
X164903475Y-73354452D02*
X164712999Y-73354452D01*
X164712999Y-73354452D02*
X164617761Y-73402071D01*
X164617761Y-73402071D02*
X164570142Y-73497309D01*
X164570142Y-73497309D02*
X164570142Y-73592547D01*
X164570142Y-73592547D02*
X165046332Y-73687785D01*
X163712999Y-74021119D02*
X163712999Y-73021119D01*
X163712999Y-73973500D02*
X163808237Y-74021119D01*
X163808237Y-74021119D02*
X163998713Y-74021119D01*
X163998713Y-74021119D02*
X164093951Y-73973500D01*
X164093951Y-73973500D02*
X164141570Y-73925880D01*
X164141570Y-73925880D02*
X164189189Y-73830642D01*
X164189189Y-73830642D02*
X164189189Y-73544928D01*
X164189189Y-73544928D02*
X164141570Y-73449690D01*
X164141570Y-73449690D02*
X164093951Y-73402071D01*
X164093951Y-73402071D02*
X163998713Y-73354452D01*
X163998713Y-73354452D02*
X163808237Y-73354452D01*
X163808237Y-73354452D02*
X163712999Y-73402071D01*
X162332046Y-74021119D02*
X162427284Y-73973500D01*
X162427284Y-73973500D02*
X162474903Y-73925880D01*
X162474903Y-73925880D02*
X162522522Y-73830642D01*
X162522522Y-73830642D02*
X162522522Y-73544928D01*
X162522522Y-73544928D02*
X162474903Y-73449690D01*
X162474903Y-73449690D02*
X162427284Y-73402071D01*
X162427284Y-73402071D02*
X162332046Y-73354452D01*
X162332046Y-73354452D02*
X162189189Y-73354452D01*
X162189189Y-73354452D02*
X162093951Y-73402071D01*
X162093951Y-73402071D02*
X162046332Y-73449690D01*
X162046332Y-73449690D02*
X161998713Y-73544928D01*
X161998713Y-73544928D02*
X161998713Y-73830642D01*
X161998713Y-73830642D02*
X162046332Y-73925880D01*
X162046332Y-73925880D02*
X162093951Y-73973500D01*
X162093951Y-73973500D02*
X162189189Y-74021119D01*
X162189189Y-74021119D02*
X162332046Y-74021119D01*
X161570141Y-73354452D02*
X161570141Y-74021119D01*
X161570141Y-73449690D02*
X161522522Y-73402071D01*
X161522522Y-73402071D02*
X161427284Y-73354452D01*
X161427284Y-73354452D02*
X161284427Y-73354452D01*
X161284427Y-73354452D02*
X161189189Y-73402071D01*
X161189189Y-73402071D02*
X161141570Y-73497309D01*
X161141570Y-73497309D02*
X161141570Y-74021119D01*
X160046331Y-73021119D02*
X159712998Y-74021119D01*
X159712998Y-74021119D02*
X159379665Y-73021119D01*
X159046331Y-74021119D02*
X159046331Y-73354452D01*
X159046331Y-73021119D02*
X159093950Y-73068738D01*
X159093950Y-73068738D02*
X159046331Y-73116357D01*
X159046331Y-73116357D02*
X158998712Y-73068738D01*
X158998712Y-73068738D02*
X159046331Y-73021119D01*
X159046331Y-73021119D02*
X159046331Y-73116357D01*
X158141570Y-74021119D02*
X158141570Y-73021119D01*
X158141570Y-73973500D02*
X158236808Y-74021119D01*
X158236808Y-74021119D02*
X158427284Y-74021119D01*
X158427284Y-74021119D02*
X158522522Y-73973500D01*
X158522522Y-73973500D02*
X158570141Y-73925880D01*
X158570141Y-73925880D02*
X158617760Y-73830642D01*
X158617760Y-73830642D02*
X158617760Y-73544928D01*
X158617760Y-73544928D02*
X158570141Y-73449690D01*
X158570141Y-73449690D02*
X158522522Y-73402071D01*
X158522522Y-73402071D02*
X158427284Y-73354452D01*
X158427284Y-73354452D02*
X158236808Y-73354452D01*
X158236808Y-73354452D02*
X158141570Y-73402071D01*
X157284427Y-73973500D02*
X157379665Y-74021119D01*
X157379665Y-74021119D02*
X157570141Y-74021119D01*
X157570141Y-74021119D02*
X157665379Y-73973500D01*
X157665379Y-73973500D02*
X157712998Y-73878261D01*
X157712998Y-73878261D02*
X157712998Y-73497309D01*
X157712998Y-73497309D02*
X157665379Y-73402071D01*
X157665379Y-73402071D02*
X157570141Y-73354452D01*
X157570141Y-73354452D02*
X157379665Y-73354452D01*
X157379665Y-73354452D02*
X157284427Y-73402071D01*
X157284427Y-73402071D02*
X157236808Y-73497309D01*
X157236808Y-73497309D02*
X157236808Y-73592547D01*
X157236808Y-73592547D02*
X157712998Y-73687785D01*
X156665379Y-74021119D02*
X156760617Y-73973500D01*
X156760617Y-73973500D02*
X156808236Y-73925880D01*
X156808236Y-73925880D02*
X156855855Y-73830642D01*
X156855855Y-73830642D02*
X156855855Y-73544928D01*
X156855855Y-73544928D02*
X156808236Y-73449690D01*
X156808236Y-73449690D02*
X156760617Y-73402071D01*
X156760617Y-73402071D02*
X156665379Y-73354452D01*
X156665379Y-73354452D02*
X156522522Y-73354452D01*
X156522522Y-73354452D02*
X156427284Y-73402071D01*
X156427284Y-73402071D02*
X156379665Y-73449690D01*
X156379665Y-73449690D02*
X156332046Y-73544928D01*
X156332046Y-73544928D02*
X156332046Y-73830642D01*
X156332046Y-73830642D02*
X156379665Y-73925880D01*
X156379665Y-73925880D02*
X156427284Y-73973500D01*
X156427284Y-73973500D02*
X156522522Y-74021119D01*
X156522522Y-74021119D02*
X156665379Y-74021119D01*
X155141569Y-73497309D02*
X154808236Y-73497309D01*
X154665379Y-74021119D02*
X155141569Y-74021119D01*
X155141569Y-74021119D02*
X155141569Y-73021119D01*
X155141569Y-73021119D02*
X154665379Y-73021119D01*
X154332045Y-74021119D02*
X153808236Y-73354452D01*
X154332045Y-73354452D02*
X153808236Y-74021119D01*
X153427283Y-73354452D02*
X153427283Y-74354452D01*
X153427283Y-73402071D02*
X153332045Y-73354452D01*
X153332045Y-73354452D02*
X153141569Y-73354452D01*
X153141569Y-73354452D02*
X153046331Y-73402071D01*
X153046331Y-73402071D02*
X152998712Y-73449690D01*
X152998712Y-73449690D02*
X152951093Y-73544928D01*
X152951093Y-73544928D02*
X152951093Y-73830642D01*
X152951093Y-73830642D02*
X152998712Y-73925880D01*
X152998712Y-73925880D02*
X153046331Y-73973500D01*
X153046331Y-73973500D02*
X153141569Y-74021119D01*
X153141569Y-74021119D02*
X153332045Y-74021119D01*
X153332045Y-74021119D02*
X153427283Y-73973500D01*
X152141569Y-73973500D02*
X152236807Y-74021119D01*
X152236807Y-74021119D02*
X152427283Y-74021119D01*
X152427283Y-74021119D02*
X152522521Y-73973500D01*
X152522521Y-73973500D02*
X152570140Y-73878261D01*
X152570140Y-73878261D02*
X152570140Y-73497309D01*
X152570140Y-73497309D02*
X152522521Y-73402071D01*
X152522521Y-73402071D02*
X152427283Y-73354452D01*
X152427283Y-73354452D02*
X152236807Y-73354452D01*
X152236807Y-73354452D02*
X152141569Y-73402071D01*
X152141569Y-73402071D02*
X152093950Y-73497309D01*
X152093950Y-73497309D02*
X152093950Y-73592547D01*
X152093950Y-73592547D02*
X152570140Y-73687785D01*
X151665378Y-74021119D02*
X151665378Y-73354452D01*
X151665378Y-73544928D02*
X151617759Y-73449690D01*
X151617759Y-73449690D02*
X151570140Y-73402071D01*
X151570140Y-73402071D02*
X151474902Y-73354452D01*
X151474902Y-73354452D02*
X151379664Y-73354452D01*
X151046330Y-74021119D02*
X151046330Y-73354452D01*
X151046330Y-73021119D02*
X151093949Y-73068738D01*
X151093949Y-73068738D02*
X151046330Y-73116357D01*
X151046330Y-73116357D02*
X150998711Y-73068738D01*
X150998711Y-73068738D02*
X151046330Y-73021119D01*
X151046330Y-73021119D02*
X151046330Y-73116357D01*
X150570140Y-74021119D02*
X150570140Y-73354452D01*
X150570140Y-73449690D02*
X150522521Y-73402071D01*
X150522521Y-73402071D02*
X150427283Y-73354452D01*
X150427283Y-73354452D02*
X150284426Y-73354452D01*
X150284426Y-73354452D02*
X150189188Y-73402071D01*
X150189188Y-73402071D02*
X150141569Y-73497309D01*
X150141569Y-73497309D02*
X150141569Y-74021119D01*
X150141569Y-73497309D02*
X150093950Y-73402071D01*
X150093950Y-73402071D02*
X149998712Y-73354452D01*
X149998712Y-73354452D02*
X149855855Y-73354452D01*
X149855855Y-73354452D02*
X149760616Y-73402071D01*
X149760616Y-73402071D02*
X149712997Y-73497309D01*
X149712997Y-73497309D02*
X149712997Y-74021119D01*
X148855855Y-73973500D02*
X148951093Y-74021119D01*
X148951093Y-74021119D02*
X149141569Y-74021119D01*
X149141569Y-74021119D02*
X149236807Y-73973500D01*
X149236807Y-73973500D02*
X149284426Y-73878261D01*
X149284426Y-73878261D02*
X149284426Y-73497309D01*
X149284426Y-73497309D02*
X149236807Y-73402071D01*
X149236807Y-73402071D02*
X149141569Y-73354452D01*
X149141569Y-73354452D02*
X148951093Y-73354452D01*
X148951093Y-73354452D02*
X148855855Y-73402071D01*
X148855855Y-73402071D02*
X148808236Y-73497309D01*
X148808236Y-73497309D02*
X148808236Y-73592547D01*
X148808236Y-73592547D02*
X149284426Y-73687785D01*
X148379664Y-73354452D02*
X148379664Y-74021119D01*
X148379664Y-73449690D02*
X148332045Y-73402071D01*
X148332045Y-73402071D02*
X148236807Y-73354452D01*
X148236807Y-73354452D02*
X148093950Y-73354452D01*
X148093950Y-73354452D02*
X147998712Y-73402071D01*
X147998712Y-73402071D02*
X147951093Y-73497309D01*
X147951093Y-73497309D02*
X147951093Y-74021119D01*
X147617759Y-73354452D02*
X147236807Y-73354452D01*
X147474902Y-73021119D02*
X147474902Y-73878261D01*
X147474902Y-73878261D02*
X147427283Y-73973500D01*
X147427283Y-73973500D02*
X147332045Y-74021119D01*
X147332045Y-74021119D02*
X147236807Y-74021119D01*
X146522521Y-73973500D02*
X146617759Y-74021119D01*
X146617759Y-74021119D02*
X146808235Y-74021119D01*
X146808235Y-74021119D02*
X146903473Y-73973500D01*
X146903473Y-73973500D02*
X146951092Y-73878261D01*
X146951092Y-73878261D02*
X146951092Y-73497309D01*
X146951092Y-73497309D02*
X146903473Y-73402071D01*
X146903473Y-73402071D02*
X146808235Y-73354452D01*
X146808235Y-73354452D02*
X146617759Y-73354452D01*
X146617759Y-73354452D02*
X146522521Y-73402071D01*
X146522521Y-73402071D02*
X146474902Y-73497309D01*
X146474902Y-73497309D02*
X146474902Y-73592547D01*
X146474902Y-73592547D02*
X146951092Y-73687785D01*
X146046330Y-74021119D02*
X146046330Y-73354452D01*
X146046330Y-73544928D02*
X145998711Y-73449690D01*
X145998711Y-73449690D02*
X145951092Y-73402071D01*
X145951092Y-73402071D02*
X145855854Y-73354452D01*
X145855854Y-73354452D02*
X145760616Y-73354452D01*
X144665377Y-74021119D02*
X144665377Y-73021119D01*
X144665377Y-73402071D02*
X144570139Y-73354452D01*
X144570139Y-73354452D02*
X144379663Y-73354452D01*
X144379663Y-73354452D02*
X144284425Y-73402071D01*
X144284425Y-73402071D02*
X144236806Y-73449690D01*
X144236806Y-73449690D02*
X144189187Y-73544928D01*
X144189187Y-73544928D02*
X144189187Y-73830642D01*
X144189187Y-73830642D02*
X144236806Y-73925880D01*
X144236806Y-73925880D02*
X144284425Y-73973500D01*
X144284425Y-73973500D02*
X144379663Y-74021119D01*
X144379663Y-74021119D02*
X144570139Y-74021119D01*
X144570139Y-74021119D02*
X144665377Y-73973500D01*
X143855853Y-73354452D02*
X143617758Y-74021119D01*
X143379663Y-73354452D02*
X143617758Y-74021119D01*
X143617758Y-74021119D02*
X143712996Y-74259214D01*
X143712996Y-74259214D02*
X143760615Y-74306833D01*
X143760615Y-74306833D02*
X143855853Y-74354452D01*
X142236805Y-73354452D02*
X142236805Y-74021119D01*
X142236805Y-73449690D02*
X142189186Y-73402071D01*
X142189186Y-73402071D02*
X142093948Y-73354452D01*
X142093948Y-73354452D02*
X141951091Y-73354452D01*
X141951091Y-73354452D02*
X141855853Y-73402071D01*
X141855853Y-73402071D02*
X141808234Y-73497309D01*
X141808234Y-73497309D02*
X141808234Y-74021119D01*
X141189186Y-74021119D02*
X141284424Y-73973500D01*
X141284424Y-73973500D02*
X141332043Y-73925880D01*
X141332043Y-73925880D02*
X141379662Y-73830642D01*
X141379662Y-73830642D02*
X141379662Y-73544928D01*
X141379662Y-73544928D02*
X141332043Y-73449690D01*
X141332043Y-73449690D02*
X141284424Y-73402071D01*
X141284424Y-73402071D02*
X141189186Y-73354452D01*
X141189186Y-73354452D02*
X141046329Y-73354452D01*
X141046329Y-73354452D02*
X140951091Y-73402071D01*
X140951091Y-73402071D02*
X140903472Y-73449690D01*
X140903472Y-73449690D02*
X140855853Y-73544928D01*
X140855853Y-73544928D02*
X140855853Y-73830642D01*
X140855853Y-73830642D02*
X140903472Y-73925880D01*
X140903472Y-73925880D02*
X140951091Y-73973500D01*
X140951091Y-73973500D02*
X141046329Y-74021119D01*
X141046329Y-74021119D02*
X141189186Y-74021119D01*
X140284424Y-74021119D02*
X140379662Y-73973500D01*
X140379662Y-73973500D02*
X140427281Y-73925880D01*
X140427281Y-73925880D02*
X140474900Y-73830642D01*
X140474900Y-73830642D02*
X140474900Y-73544928D01*
X140474900Y-73544928D02*
X140427281Y-73449690D01*
X140427281Y-73449690D02*
X140379662Y-73402071D01*
X140379662Y-73402071D02*
X140284424Y-73354452D01*
X140284424Y-73354452D02*
X140141567Y-73354452D01*
X140141567Y-73354452D02*
X140046329Y-73402071D01*
X140046329Y-73402071D02*
X139998710Y-73449690D01*
X139998710Y-73449690D02*
X139951091Y-73544928D01*
X139951091Y-73544928D02*
X139951091Y-73830642D01*
X139951091Y-73830642D02*
X139998710Y-73925880D01*
X139998710Y-73925880D02*
X140046329Y-73973500D01*
X140046329Y-73973500D02*
X140141567Y-74021119D01*
X140141567Y-74021119D02*
X140284424Y-74021119D01*
X139665376Y-73354452D02*
X139284424Y-73354452D01*
X139522519Y-73021119D02*
X139522519Y-73878261D01*
X139522519Y-73878261D02*
X139474900Y-73973500D01*
X139474900Y-73973500D02*
X139379662Y-74021119D01*
X139379662Y-74021119D02*
X139284424Y-74021119D01*
X138951090Y-74021119D02*
X138951090Y-73354452D01*
X138951090Y-73544928D02*
X138903471Y-73449690D01*
X138903471Y-73449690D02*
X138855852Y-73402071D01*
X138855852Y-73402071D02*
X138760614Y-73354452D01*
X138760614Y-73354452D02*
X138665376Y-73354452D01*
X138189185Y-74021119D02*
X138284423Y-73973500D01*
X138284423Y-73973500D02*
X138332042Y-73925880D01*
X138332042Y-73925880D02*
X138379661Y-73830642D01*
X138379661Y-73830642D02*
X138379661Y-73544928D01*
X138379661Y-73544928D02*
X138332042Y-73449690D01*
X138332042Y-73449690D02*
X138284423Y-73402071D01*
X138284423Y-73402071D02*
X138189185Y-73354452D01*
X138189185Y-73354452D02*
X138046328Y-73354452D01*
X138046328Y-73354452D02*
X137951090Y-73402071D01*
X137951090Y-73402071D02*
X137903471Y-73449690D01*
X137903471Y-73449690D02*
X137855852Y-73544928D01*
X137855852Y-73544928D02*
X137855852Y-73830642D01*
X137855852Y-73830642D02*
X137903471Y-73925880D01*
X137903471Y-73925880D02*
X137951090Y-73973500D01*
X137951090Y-73973500D02*
X138046328Y-74021119D01*
X138046328Y-74021119D02*
X138189185Y-74021119D01*
X137427280Y-73354452D02*
X137427280Y-74354452D01*
X137427280Y-73402071D02*
X137332042Y-73354452D01*
X137332042Y-73354452D02*
X137141566Y-73354452D01*
X137141566Y-73354452D02*
X137046328Y-73402071D01*
X137046328Y-73402071D02*
X136998709Y-73449690D01*
X136998709Y-73449690D02*
X136951090Y-73544928D01*
X136951090Y-73544928D02*
X136951090Y-73830642D01*
X136951090Y-73830642D02*
X136998709Y-73925880D01*
X136998709Y-73925880D02*
X137046328Y-73973500D01*
X137046328Y-73973500D02*
X137141566Y-74021119D01*
X137141566Y-74021119D02*
X137332042Y-74021119D01*
X137332042Y-74021119D02*
X137427280Y-73973500D01*
X136522518Y-74021119D02*
X136522518Y-73354452D01*
X136522518Y-73021119D02*
X136570137Y-73068738D01*
X136570137Y-73068738D02*
X136522518Y-73116357D01*
X136522518Y-73116357D02*
X136474899Y-73068738D01*
X136474899Y-73068738D02*
X136522518Y-73021119D01*
X136522518Y-73021119D02*
X136522518Y-73116357D01*
X135617757Y-73973500D02*
X135712995Y-74021119D01*
X135712995Y-74021119D02*
X135903471Y-74021119D01*
X135903471Y-74021119D02*
X135998709Y-73973500D01*
X135998709Y-73973500D02*
X136046328Y-73925880D01*
X136046328Y-73925880D02*
X136093947Y-73830642D01*
X136093947Y-73830642D02*
X136093947Y-73544928D01*
X136093947Y-73544928D02*
X136046328Y-73449690D01*
X136046328Y-73449690D02*
X135998709Y-73402071D01*
X135998709Y-73402071D02*
X135903471Y-73354452D01*
X135903471Y-73354452D02*
X135712995Y-73354452D01*
X135712995Y-73354452D02*
X135617757Y-73402071D01*
X133998709Y-74021119D02*
X133998709Y-73021119D01*
X133998709Y-73973500D02*
X134093947Y-74021119D01*
X134093947Y-74021119D02*
X134284423Y-74021119D01*
X134284423Y-74021119D02*
X134379661Y-73973500D01*
X134379661Y-73973500D02*
X134427280Y-73925880D01*
X134427280Y-73925880D02*
X134474899Y-73830642D01*
X134474899Y-73830642D02*
X134474899Y-73544928D01*
X134474899Y-73544928D02*
X134427280Y-73449690D01*
X134427280Y-73449690D02*
X134379661Y-73402071D01*
X134379661Y-73402071D02*
X134284423Y-73354452D01*
X134284423Y-73354452D02*
X134093947Y-73354452D01*
X134093947Y-73354452D02*
X133998709Y-73402071D01*
X133141566Y-73973500D02*
X133236804Y-74021119D01*
X133236804Y-74021119D02*
X133427280Y-74021119D01*
X133427280Y-74021119D02*
X133522518Y-73973500D01*
X133522518Y-73973500D02*
X133570137Y-73878261D01*
X133570137Y-73878261D02*
X133570137Y-73497309D01*
X133570137Y-73497309D02*
X133522518Y-73402071D01*
X133522518Y-73402071D02*
X133427280Y-73354452D01*
X133427280Y-73354452D02*
X133236804Y-73354452D01*
X133236804Y-73354452D02*
X133141566Y-73402071D01*
X133141566Y-73402071D02*
X133093947Y-73497309D01*
X133093947Y-73497309D02*
X133093947Y-73592547D01*
X133093947Y-73592547D02*
X133570137Y-73687785D01*
X132712994Y-73973500D02*
X132617756Y-74021119D01*
X132617756Y-74021119D02*
X132427280Y-74021119D01*
X132427280Y-74021119D02*
X132332042Y-73973500D01*
X132332042Y-73973500D02*
X132284423Y-73878261D01*
X132284423Y-73878261D02*
X132284423Y-73830642D01*
X132284423Y-73830642D02*
X132332042Y-73735404D01*
X132332042Y-73735404D02*
X132427280Y-73687785D01*
X132427280Y-73687785D02*
X132570137Y-73687785D01*
X132570137Y-73687785D02*
X132665375Y-73640166D01*
X132665375Y-73640166D02*
X132712994Y-73544928D01*
X132712994Y-73544928D02*
X132712994Y-73497309D01*
X132712994Y-73497309D02*
X132665375Y-73402071D01*
X132665375Y-73402071D02*
X132570137Y-73354452D01*
X132570137Y-73354452D02*
X132427280Y-73354452D01*
X132427280Y-73354452D02*
X132332042Y-73402071D01*
X131855851Y-74021119D02*
X131855851Y-73354452D01*
X131855851Y-73021119D02*
X131903470Y-73068738D01*
X131903470Y-73068738D02*
X131855851Y-73116357D01*
X131855851Y-73116357D02*
X131808232Y-73068738D01*
X131808232Y-73068738D02*
X131855851Y-73021119D01*
X131855851Y-73021119D02*
X131855851Y-73116357D01*
X130951090Y-73354452D02*
X130951090Y-74163976D01*
X130951090Y-74163976D02*
X130998709Y-74259214D01*
X130998709Y-74259214D02*
X131046328Y-74306833D01*
X131046328Y-74306833D02*
X131141566Y-74354452D01*
X131141566Y-74354452D02*
X131284423Y-74354452D01*
X131284423Y-74354452D02*
X131379661Y-74306833D01*
X130951090Y-73973500D02*
X131046328Y-74021119D01*
X131046328Y-74021119D02*
X131236804Y-74021119D01*
X131236804Y-74021119D02*
X131332042Y-73973500D01*
X131332042Y-73973500D02*
X131379661Y-73925880D01*
X131379661Y-73925880D02*
X131427280Y-73830642D01*
X131427280Y-73830642D02*
X131427280Y-73544928D01*
X131427280Y-73544928D02*
X131379661Y-73449690D01*
X131379661Y-73449690D02*
X131332042Y-73402071D01*
X131332042Y-73402071D02*
X131236804Y-73354452D01*
X131236804Y-73354452D02*
X131046328Y-73354452D01*
X131046328Y-73354452D02*
X130951090Y-73402071D01*
X130474899Y-73354452D02*
X130474899Y-74021119D01*
X130474899Y-73449690D02*
X130427280Y-73402071D01*
X130427280Y-73402071D02*
X130332042Y-73354452D01*
X130332042Y-73354452D02*
X130189185Y-73354452D01*
X130189185Y-73354452D02*
X130093947Y-73402071D01*
X130093947Y-73402071D02*
X130046328Y-73497309D01*
X130046328Y-73497309D02*
X130046328Y-74021119D01*
D11*
X177892106Y-71290662D02*
X177892106Y-70090662D01*
X177892106Y-71233520D02*
X178006391Y-71290662D01*
X178006391Y-71290662D02*
X178234963Y-71290662D01*
X178234963Y-71290662D02*
X178349248Y-71233520D01*
X178349248Y-71233520D02*
X178406391Y-71176377D01*
X178406391Y-71176377D02*
X178463534Y-71062091D01*
X178463534Y-71062091D02*
X178463534Y-70719234D01*
X178463534Y-70719234D02*
X178406391Y-70604948D01*
X178406391Y-70604948D02*
X178349248Y-70547805D01*
X178349248Y-70547805D02*
X178234963Y-70490662D01*
X178234963Y-70490662D02*
X178006391Y-70490662D01*
X178006391Y-70490662D02*
X177892106Y-70547805D01*
X176863534Y-71233520D02*
X176977820Y-71290662D01*
X176977820Y-71290662D02*
X177206392Y-71290662D01*
X177206392Y-71290662D02*
X177320677Y-71233520D01*
X177320677Y-71233520D02*
X177377820Y-71119234D01*
X177377820Y-71119234D02*
X177377820Y-70662091D01*
X177377820Y-70662091D02*
X177320677Y-70547805D01*
X177320677Y-70547805D02*
X177206392Y-70490662D01*
X177206392Y-70490662D02*
X176977820Y-70490662D01*
X176977820Y-70490662D02*
X176863534Y-70547805D01*
X176863534Y-70547805D02*
X176806392Y-70662091D01*
X176806392Y-70662091D02*
X176806392Y-70776377D01*
X176806392Y-70776377D02*
X177377820Y-70890662D01*
X176349249Y-71233520D02*
X176234963Y-71290662D01*
X176234963Y-71290662D02*
X176006392Y-71290662D01*
X176006392Y-71290662D02*
X175892106Y-71233520D01*
X175892106Y-71233520D02*
X175834963Y-71119234D01*
X175834963Y-71119234D02*
X175834963Y-71062091D01*
X175834963Y-71062091D02*
X175892106Y-70947805D01*
X175892106Y-70947805D02*
X176006392Y-70890662D01*
X176006392Y-70890662D02*
X176177821Y-70890662D01*
X176177821Y-70890662D02*
X176292106Y-70833520D01*
X176292106Y-70833520D02*
X176349249Y-70719234D01*
X176349249Y-70719234D02*
X176349249Y-70662091D01*
X176349249Y-70662091D02*
X176292106Y-70547805D01*
X176292106Y-70547805D02*
X176177821Y-70490662D01*
X176177821Y-70490662D02*
X176006392Y-70490662D01*
X176006392Y-70490662D02*
X175892106Y-70547805D01*
X175320677Y-71290662D02*
X175320677Y-70490662D01*
X175320677Y-70090662D02*
X175377820Y-70147805D01*
X175377820Y-70147805D02*
X175320677Y-70204948D01*
X175320677Y-70204948D02*
X175263534Y-70147805D01*
X175263534Y-70147805D02*
X175320677Y-70090662D01*
X175320677Y-70090662D02*
X175320677Y-70204948D01*
X174234963Y-70490662D02*
X174234963Y-71462091D01*
X174234963Y-71462091D02*
X174292105Y-71576377D01*
X174292105Y-71576377D02*
X174349248Y-71633520D01*
X174349248Y-71633520D02*
X174463534Y-71690662D01*
X174463534Y-71690662D02*
X174634963Y-71690662D01*
X174634963Y-71690662D02*
X174749248Y-71633520D01*
X174234963Y-71233520D02*
X174349248Y-71290662D01*
X174349248Y-71290662D02*
X174577820Y-71290662D01*
X174577820Y-71290662D02*
X174692105Y-71233520D01*
X174692105Y-71233520D02*
X174749248Y-71176377D01*
X174749248Y-71176377D02*
X174806391Y-71062091D01*
X174806391Y-71062091D02*
X174806391Y-70719234D01*
X174806391Y-70719234D02*
X174749248Y-70604948D01*
X174749248Y-70604948D02*
X174692105Y-70547805D01*
X174692105Y-70547805D02*
X174577820Y-70490662D01*
X174577820Y-70490662D02*
X174349248Y-70490662D01*
X174349248Y-70490662D02*
X174234963Y-70547805D01*
X173663534Y-70490662D02*
X173663534Y-71290662D01*
X173663534Y-70604948D02*
X173606391Y-70547805D01*
X173606391Y-70547805D02*
X173492106Y-70490662D01*
X173492106Y-70490662D02*
X173320677Y-70490662D01*
X173320677Y-70490662D02*
X173206391Y-70547805D01*
X173206391Y-70547805D02*
X173149249Y-70662091D01*
X173149249Y-70662091D02*
X173149249Y-71290662D01*
X171777820Y-70490662D02*
X171492106Y-71290662D01*
X171492106Y-71290662D02*
X171206391Y-70490662D01*
X170520677Y-70090662D02*
X170406391Y-70090662D01*
X170406391Y-70090662D02*
X170292105Y-70147805D01*
X170292105Y-70147805D02*
X170234963Y-70204948D01*
X170234963Y-70204948D02*
X170177820Y-70319234D01*
X170177820Y-70319234D02*
X170120677Y-70547805D01*
X170120677Y-70547805D02*
X170120677Y-70833520D01*
X170120677Y-70833520D02*
X170177820Y-71062091D01*
X170177820Y-71062091D02*
X170234963Y-71176377D01*
X170234963Y-71176377D02*
X170292105Y-71233520D01*
X170292105Y-71233520D02*
X170406391Y-71290662D01*
X170406391Y-71290662D02*
X170520677Y-71290662D01*
X170520677Y-71290662D02*
X170634963Y-71233520D01*
X170634963Y-71233520D02*
X170692105Y-71176377D01*
X170692105Y-71176377D02*
X170749248Y-71062091D01*
X170749248Y-71062091D02*
X170806391Y-70833520D01*
X170806391Y-70833520D02*
X170806391Y-70547805D01*
X170806391Y-70547805D02*
X170749248Y-70319234D01*
X170749248Y-70319234D02*
X170692105Y-70204948D01*
X170692105Y-70204948D02*
X170634963Y-70147805D01*
X170634963Y-70147805D02*
X170520677Y-70090662D01*
X169606391Y-71176377D02*
X169549248Y-71233520D01*
X169549248Y-71233520D02*
X169606391Y-71290662D01*
X169606391Y-71290662D02*
X169663534Y-71233520D01*
X169663534Y-71233520D02*
X169606391Y-71176377D01*
X169606391Y-71176377D02*
X169606391Y-71290662D01*
X168406391Y-71290662D02*
X169092105Y-71290662D01*
X168749248Y-71290662D02*
X168749248Y-70090662D01*
X168749248Y-70090662D02*
X168863534Y-70262091D01*
X168863534Y-70262091D02*
X168977819Y-70376377D01*
X168977819Y-70376377D02*
X169092105Y-70433520D01*
X166977819Y-71290662D02*
X166977819Y-70090662D01*
X166977819Y-70547805D02*
X166863534Y-70490662D01*
X166863534Y-70490662D02*
X166634962Y-70490662D01*
X166634962Y-70490662D02*
X166520676Y-70547805D01*
X166520676Y-70547805D02*
X166463534Y-70604948D01*
X166463534Y-70604948D02*
X166406391Y-70719234D01*
X166406391Y-70719234D02*
X166406391Y-71062091D01*
X166406391Y-71062091D02*
X166463534Y-71176377D01*
X166463534Y-71176377D02*
X166520676Y-71233520D01*
X166520676Y-71233520D02*
X166634962Y-71290662D01*
X166634962Y-71290662D02*
X166863534Y-71290662D01*
X166863534Y-71290662D02*
X166977819Y-71233520D01*
X166006391Y-70490662D02*
X165720677Y-71290662D01*
X165434962Y-70490662D02*
X165720677Y-71290662D01*
X165720677Y-71290662D02*
X165834962Y-71576377D01*
X165834962Y-71576377D02*
X165892105Y-71633520D01*
X165892105Y-71633520D02*
X166006391Y-71690662D01*
X164063533Y-70490662D02*
X164063533Y-71690662D01*
X164063533Y-70547805D02*
X163949248Y-70490662D01*
X163949248Y-70490662D02*
X163720676Y-70490662D01*
X163720676Y-70490662D02*
X163606390Y-70547805D01*
X163606390Y-70547805D02*
X163549248Y-70604948D01*
X163549248Y-70604948D02*
X163492105Y-70719234D01*
X163492105Y-70719234D02*
X163492105Y-71062091D01*
X163492105Y-71062091D02*
X163549248Y-71176377D01*
X163549248Y-71176377D02*
X163606390Y-71233520D01*
X163606390Y-71233520D02*
X163720676Y-71290662D01*
X163720676Y-71290662D02*
X163949248Y-71290662D01*
X163949248Y-71290662D02*
X164063533Y-71233520D01*
X162806391Y-71290662D02*
X162920676Y-71233520D01*
X162920676Y-71233520D02*
X162977819Y-71176377D01*
X162977819Y-71176377D02*
X163034962Y-71062091D01*
X163034962Y-71062091D02*
X163034962Y-70719234D01*
X163034962Y-70719234D02*
X162977819Y-70604948D01*
X162977819Y-70604948D02*
X162920676Y-70547805D01*
X162920676Y-70547805D02*
X162806391Y-70490662D01*
X162806391Y-70490662D02*
X162634962Y-70490662D01*
X162634962Y-70490662D02*
X162520676Y-70547805D01*
X162520676Y-70547805D02*
X162463534Y-70604948D01*
X162463534Y-70604948D02*
X162406391Y-70719234D01*
X162406391Y-70719234D02*
X162406391Y-71062091D01*
X162406391Y-71062091D02*
X162463534Y-71176377D01*
X162463534Y-71176377D02*
X162520676Y-71233520D01*
X162520676Y-71233520D02*
X162634962Y-71290662D01*
X162634962Y-71290662D02*
X162806391Y-71290662D01*
X161720677Y-71290662D02*
X161834962Y-71233520D01*
X161834962Y-71233520D02*
X161892105Y-71119234D01*
X161892105Y-71119234D02*
X161892105Y-70090662D01*
X161377820Y-70490662D02*
X161092106Y-71290662D01*
X160806391Y-70490662D02*
X161092106Y-71290662D01*
X161092106Y-71290662D02*
X161206391Y-71576377D01*
X161206391Y-71576377D02*
X161263534Y-71633520D01*
X161263534Y-71633520D02*
X161377820Y-71690662D01*
X160349248Y-71290662D02*
X160349248Y-70490662D01*
X160349248Y-70604948D02*
X160292105Y-70547805D01*
X160292105Y-70547805D02*
X160177820Y-70490662D01*
X160177820Y-70490662D02*
X160006391Y-70490662D01*
X160006391Y-70490662D02*
X159892105Y-70547805D01*
X159892105Y-70547805D02*
X159834963Y-70662091D01*
X159834963Y-70662091D02*
X159834963Y-71290662D01*
X159834963Y-70662091D02*
X159777820Y-70547805D01*
X159777820Y-70547805D02*
X159663534Y-70490662D01*
X159663534Y-70490662D02*
X159492105Y-70490662D01*
X159492105Y-70490662D02*
X159377820Y-70547805D01*
X159377820Y-70547805D02*
X159320677Y-70662091D01*
X159320677Y-70662091D02*
X159320677Y-71290662D01*
X158234963Y-71290662D02*
X158234963Y-70662091D01*
X158234963Y-70662091D02*
X158292105Y-70547805D01*
X158292105Y-70547805D02*
X158406391Y-70490662D01*
X158406391Y-70490662D02*
X158634963Y-70490662D01*
X158634963Y-70490662D02*
X158749248Y-70547805D01*
X158234963Y-71233520D02*
X158349248Y-71290662D01*
X158349248Y-71290662D02*
X158634963Y-71290662D01*
X158634963Y-71290662D02*
X158749248Y-71233520D01*
X158749248Y-71233520D02*
X158806391Y-71119234D01*
X158806391Y-71119234D02*
X158806391Y-71004948D01*
X158806391Y-71004948D02*
X158749248Y-70890662D01*
X158749248Y-70890662D02*
X158634963Y-70833520D01*
X158634963Y-70833520D02*
X158349248Y-70833520D01*
X158349248Y-70833520D02*
X158234963Y-70776377D01*
X157834963Y-70490662D02*
X157377820Y-70490662D01*
X157663534Y-70090662D02*
X157663534Y-71119234D01*
X157663534Y-71119234D02*
X157606391Y-71233520D01*
X157606391Y-71233520D02*
X157492106Y-71290662D01*
X157492106Y-71290662D02*
X157377820Y-71290662D01*
X157149249Y-70490662D02*
X156692106Y-70490662D01*
X156977820Y-70090662D02*
X156977820Y-71119234D01*
X156977820Y-71119234D02*
X156920677Y-71233520D01*
X156920677Y-71233520D02*
X156806392Y-71290662D01*
X156806392Y-71290662D02*
X156692106Y-71290662D01*
X155434963Y-70204948D02*
X155377820Y-70147805D01*
X155377820Y-70147805D02*
X155263535Y-70090662D01*
X155263535Y-70090662D02*
X154977820Y-70090662D01*
X154977820Y-70090662D02*
X154863535Y-70147805D01*
X154863535Y-70147805D02*
X154806392Y-70204948D01*
X154806392Y-70204948D02*
X154749249Y-70319234D01*
X154749249Y-70319234D02*
X154749249Y-70433520D01*
X154749249Y-70433520D02*
X154806392Y-70604948D01*
X154806392Y-70604948D02*
X155492106Y-71290662D01*
X155492106Y-71290662D02*
X154749249Y-71290662D01*
X154006392Y-70090662D02*
X153892106Y-70090662D01*
X153892106Y-70090662D02*
X153777820Y-70147805D01*
X153777820Y-70147805D02*
X153720678Y-70204948D01*
X153720678Y-70204948D02*
X153663535Y-70319234D01*
X153663535Y-70319234D02*
X153606392Y-70547805D01*
X153606392Y-70547805D02*
X153606392Y-70833520D01*
X153606392Y-70833520D02*
X153663535Y-71062091D01*
X153663535Y-71062091D02*
X153720678Y-71176377D01*
X153720678Y-71176377D02*
X153777820Y-71233520D01*
X153777820Y-71233520D02*
X153892106Y-71290662D01*
X153892106Y-71290662D02*
X154006392Y-71290662D01*
X154006392Y-71290662D02*
X154120678Y-71233520D01*
X154120678Y-71233520D02*
X154177820Y-71176377D01*
X154177820Y-71176377D02*
X154234963Y-71062091D01*
X154234963Y-71062091D02*
X154292106Y-70833520D01*
X154292106Y-70833520D02*
X154292106Y-70547805D01*
X154292106Y-70547805D02*
X154234963Y-70319234D01*
X154234963Y-70319234D02*
X154177820Y-70204948D01*
X154177820Y-70204948D02*
X154120678Y-70147805D01*
X154120678Y-70147805D02*
X154006392Y-70090662D01*
X153149249Y-70204948D02*
X153092106Y-70147805D01*
X153092106Y-70147805D02*
X152977821Y-70090662D01*
X152977821Y-70090662D02*
X152692106Y-70090662D01*
X152692106Y-70090662D02*
X152577821Y-70147805D01*
X152577821Y-70147805D02*
X152520678Y-70204948D01*
X152520678Y-70204948D02*
X152463535Y-70319234D01*
X152463535Y-70319234D02*
X152463535Y-70433520D01*
X152463535Y-70433520D02*
X152520678Y-70604948D01*
X152520678Y-70604948D02*
X153206392Y-71290662D01*
X153206392Y-71290662D02*
X152463535Y-71290662D01*
X151377821Y-70090662D02*
X151949249Y-70090662D01*
X151949249Y-70090662D02*
X152006392Y-70662091D01*
X152006392Y-70662091D02*
X151949249Y-70604948D01*
X151949249Y-70604948D02*
X151834964Y-70547805D01*
X151834964Y-70547805D02*
X151549249Y-70547805D01*
X151549249Y-70547805D02*
X151434964Y-70604948D01*
X151434964Y-70604948D02*
X151377821Y-70662091D01*
X151377821Y-70662091D02*
X151320678Y-70776377D01*
X151320678Y-70776377D02*
X151320678Y-71062091D01*
X151320678Y-71062091D02*
X151377821Y-71176377D01*
X151377821Y-71176377D02*
X151434964Y-71233520D01*
X151434964Y-71233520D02*
X151549249Y-71290662D01*
X151549249Y-71290662D02*
X151834964Y-71290662D01*
X151834964Y-71290662D02*
X151949249Y-71233520D01*
X151949249Y-71233520D02*
X152006392Y-71176377D01*
M02*
