%TF.GenerationSoftware,KiCad,Pcbnew,9.0.0*%
%TF.CreationDate,2025-04-14T20:17:52-07:00*%
%TF.ProjectId,AudioVision_v1,41756469-6f56-4697-9369-6f6e5f76312e,rev?*%
%TF.SameCoordinates,Original*%
%TF.FileFunction,Copper,L2,Bot*%
%TF.FilePolarity,Positive*%
%FSLAX46Y46*%
G04 Gerber Fmt 4.6, Leading zero omitted, Abs format (unit mm)*
G04 Created by KiCad (PCBNEW 9.0.0) date 2025-04-14 20:17:52*
%MOMM*%
%LPD*%
G01*
G04 APERTURE LIST*
G04 Aperture macros list*
%AMRoundRect*
0 Rectangle with rounded corners*
0 $1 Rounding radius*
0 $2 $3 $4 $5 $6 $7 $8 $9 X,Y pos of 4 corners*
0 Add a 4 corners polygon primitive as box body*
4,1,4,$2,$3,$4,$5,$6,$7,$8,$9,$2,$3,0*
0 Add four circle primitives for the rounded corners*
1,1,$1+$1,$2,$3*
1,1,$1+$1,$4,$5*
1,1,$1+$1,$6,$7*
1,1,$1+$1,$8,$9*
0 Add four rect primitives between the rounded corners*
20,1,$1+$1,$2,$3,$4,$5,0*
20,1,$1+$1,$4,$5,$6,$7,0*
20,1,$1+$1,$6,$7,$8,$9,0*
20,1,$1+$1,$8,$9,$2,$3,0*%
G04 Aperture macros list end*
%TA.AperFunction,ComponentPad*%
%ADD10RoundRect,0.250000X-0.600000X0.600000X-0.600000X-0.600000X0.600000X-0.600000X0.600000X0.600000X0*%
%TD*%
%TA.AperFunction,ComponentPad*%
%ADD11C,1.700000*%
%TD*%
%TA.AperFunction,ComponentPad*%
%ADD12C,3.900000*%
%TD*%
%TA.AperFunction,ComponentPad*%
%ADD13C,2.550000*%
%TD*%
%TA.AperFunction,ComponentPad*%
%ADD14C,5.600000*%
%TD*%
%TA.AperFunction,ComponentPad*%
%ADD15R,1.130000X1.130000*%
%TD*%
%TA.AperFunction,ComponentPad*%
%ADD16C,1.130000*%
%TD*%
%TA.AperFunction,ComponentPad*%
%ADD17RoundRect,0.250000X0.750000X-0.600000X0.750000X0.600000X-0.750000X0.600000X-0.750000X-0.600000X0*%
%TD*%
%TA.AperFunction,ComponentPad*%
%ADD18O,2.000000X1.700000*%
%TD*%
%TA.AperFunction,ComponentPad*%
%ADD19RoundRect,0.250000X0.600000X0.750000X-0.600000X0.750000X-0.600000X-0.750000X0.600000X-0.750000X0*%
%TD*%
%TA.AperFunction,ComponentPad*%
%ADD20O,1.700000X2.000000*%
%TD*%
%TA.AperFunction,ComponentPad*%
%ADD21C,1.560000*%
%TD*%
%TA.AperFunction,ViaPad*%
%ADD22C,0.600000*%
%TD*%
%TA.AperFunction,Conductor*%
%ADD23C,0.200000*%
%TD*%
%TA.AperFunction,Conductor*%
%ADD24C,0.500000*%
%TD*%
%TA.AperFunction,Conductor*%
%ADD25C,0.330000*%
%TD*%
G04 APERTURE END LIST*
D10*
%TO.P,ISP,1,Pin_1*%
%TO.N,/D12{slash}MISO*%
X131725000Y-100550000D03*
D11*
%TO.P,ISP,2,Pin_2*%
%TO.N,/ISP-5V*%
X131725000Y-103090000D03*
%TO.P,ISP,3,Pin_3*%
%TO.N,/D13{slash}SCK*%
X129185000Y-100550000D03*
%TO.P,ISP,4,Pin_4*%
%TO.N,/D11{slash}MOSI*%
X129185000Y-103090000D03*
%TO.P,ISP,5,Pin_5*%
%TO.N,/RESET*%
X126645000Y-100550000D03*
%TO.P,ISP,6,Pin_6*%
%TO.N,GND*%
X126645000Y-103090000D03*
%TD*%
D12*
%TO.P,J5,1,1_1*%
%TO.N,GND*%
X98275000Y-101550000D03*
D13*
%TO.P,J5,2,2*%
%TO.N,/D6*%
X98275000Y-96550000D03*
D12*
%TO.P,J5,12,1_2*%
%TO.N,GND*%
X98275000Y-91550000D03*
%TO.P,J5,13,1_3*%
X93775000Y-96550000D03*
%TD*%
D14*
%TO.P,,3*%
%TO.N,N/C*%
X113050000Y-129550000D03*
%TD*%
D12*
%TO.P,J6,1,1_1*%
%TO.N,GND*%
X98300000Y-129350000D03*
D13*
%TO.P,J6,2,2*%
%TO.N,Net-(C23-Pad1)*%
X98300000Y-124350000D03*
D12*
%TO.P,J6,12,1_2*%
%TO.N,GND*%
X98300000Y-119350000D03*
%TO.P,J6,13,1_3*%
X93800000Y-124350000D03*
%TD*%
D15*
%TO.P,U5,1,GAIN_1*%
%TO.N,Net-(U5-GAIN_1)*%
X164505000Y-87750000D03*
D16*
%TO.P,U5,2,-_INPUT*%
%TO.N,GND*%
X164505000Y-90290000D03*
%TO.P,U5,3,+_INPUT*%
%TO.N,Net-(U5-+_INPUT)*%
X164505000Y-92830000D03*
%TO.P,U5,4,GND*%
%TO.N,GND*%
X164505000Y-95370000D03*
%TO.P,U5,5,VOUT*%
%TO.N,Net-(C17-+)*%
X172445000Y-95370000D03*
%TO.P,U5,6,VS*%
%TO.N,+14.5V*%
X172445000Y-92830000D03*
%TO.P,U5,7,BYPASS*%
%TO.N,Net-(U5-BYPASS)*%
X172445000Y-90290000D03*
%TO.P,U5,8,GAIN_2*%
%TO.N,Net-(U5-GAIN_2)*%
X172445000Y-87750000D03*
%TD*%
D14*
%TO.P,,2*%
%TO.N,N/C*%
X184800000Y-70750000D03*
%TD*%
D17*
%TO.P,J1,1,Pin_1*%
%TO.N,+14.5V*%
X119700000Y-115200000D03*
D18*
%TO.P,J1,2,Pin_2*%
%TO.N,GND*%
X119700000Y-112700000D03*
%TD*%
D14*
%TO.P,,4*%
%TO.N,N/C*%
X184800000Y-115450000D03*
%TD*%
D12*
%TO.P,J4,1,1_1*%
%TO.N,GND*%
X98225000Y-80050000D03*
D13*
%TO.P,J4,2,2*%
%TO.N,/D6*%
X98225000Y-75050000D03*
D12*
%TO.P,J4,12,1_2*%
%TO.N,GND*%
X98225000Y-70050000D03*
%TO.P,J4,13,1_3*%
X93725000Y-75050000D03*
%TD*%
D14*
%TO.P,REF\u002A\u002A,1*%
%TO.N,N/C*%
X113800000Y-70750000D03*
%TD*%
D19*
%TO.P,J3,1,Pin_1*%
%TO.N,Net-(C17--)*%
X198525000Y-74800000D03*
D20*
%TO.P,J3,2,Pin_2*%
%TO.N,GND*%
X196025000Y-74800000D03*
%TD*%
D21*
%TO.P,U3,1,OUT*%
%TO.N,Net-(U3-OUT)*%
X162357500Y-113075000D03*
%TO.P,U3,2,GND*%
%TO.N,GND*%
X164897500Y-113075000D03*
%TO.P,U3,3,VS*%
%TO.N,+5V*%
X167437500Y-113075000D03*
%TD*%
D22*
%TO.N,GND*%
X121850000Y-89950000D03*
%TO.N,/D11{slash}MOSI*%
X135525000Y-90025000D03*
X149050000Y-89750000D03*
%TO.N,GND*%
X131175000Y-122100000D03*
X142075000Y-117050000D03*
X107295000Y-78780000D03*
X187925000Y-89250000D03*
X142075000Y-89150000D03*
X111100000Y-91925000D03*
X109830000Y-78755000D03*
X117025000Y-93950000D03*
X156525000Y-103800000D03*
X134025000Y-110750000D03*
X117325000Y-83400000D03*
X133425000Y-113900000D03*
X179675000Y-95900000D03*
X122675000Y-86200000D03*
X187925000Y-105000000D03*
X152925000Y-89100000D03*
X131975000Y-89550000D03*
X133175000Y-85650000D03*
X118425000Y-86050000D03*
%TO.N,+5V*%
X126325000Y-87950000D03*
X142025000Y-102850000D03*
X110825000Y-87950000D03*
X141025000Y-81200000D03*
X155525000Y-81200000D03*
X142025000Y-99400000D03*
%TO.N,Net-(C23-Pad1)*%
X149975000Y-100650000D03*
%TO.N,/D7*%
X128095227Y-96920227D03*
X125975000Y-96900000D03*
%TO.N,/D13{slash}SCK*%
X137425000Y-94550000D03*
X145025000Y-94550000D03*
%TO.N,/D2*%
X129525000Y-83250000D03*
X127725000Y-83250000D03*
%TO.N,/D10*%
X145025000Y-93550000D03*
X134375000Y-93100000D03*
%TO.N,/D8*%
X107875000Y-92950000D03*
X130875000Y-95200000D03*
%TO.N,/D5*%
X130254773Y-92879773D03*
X149025000Y-101250000D03*
%TD*%
D23*
%TO.N,/D11{slash}MOSI*%
X149050000Y-89750000D02*
X135800000Y-89750000D01*
X135800000Y-89750000D02*
X135525000Y-90025000D01*
D24*
%TO.N,+5V*%
X126325000Y-87950000D02*
X134275000Y-87950000D01*
X142025000Y-102850000D02*
X142025000Y-99400000D01*
X126325000Y-87950000D02*
X127125000Y-87950000D01*
X155525000Y-81200000D02*
X141025000Y-81200000D01*
X126325000Y-87950000D02*
X110825000Y-87950000D01*
X134275000Y-87950000D02*
X141025000Y-81200000D01*
X127125000Y-87950000D02*
X142025000Y-102850000D01*
D25*
%TO.N,Net-(C23-Pad1)*%
X149975000Y-117100000D02*
X142725000Y-124350000D01*
X142725000Y-124350000D02*
X98300000Y-124350000D01*
X149975000Y-100650000D02*
X149975000Y-117100000D01*
D23*
%TO.N,/D7*%
X128075000Y-96900000D02*
X125975000Y-96900000D01*
X128095227Y-96920227D02*
X128075000Y-96900000D01*
%TO.N,/D13{slash}SCK*%
X145025000Y-94550000D02*
X137425000Y-94550000D01*
%TO.N,/D2*%
X127725000Y-83250000D02*
X129525000Y-83250000D01*
%TO.N,/D10*%
X134825000Y-93550000D02*
X134375000Y-93100000D01*
X145025000Y-93550000D02*
X134825000Y-93550000D01*
%TO.N,/D8*%
X110125000Y-95200000D02*
X107875000Y-92950000D01*
X130875000Y-95200000D02*
X110125000Y-95200000D01*
%TO.N,/D5*%
X146824000Y-103451000D02*
X140826000Y-103451000D01*
X149025000Y-101250000D02*
X146824000Y-103451000D01*
X140826000Y-103451000D02*
X130254773Y-92879773D01*
%TD*%
%TA.AperFunction,Conductor*%
%TO.N,GND*%
G36*
X127986444Y-101203999D02*
G01*
X128025486Y-101249056D01*
X128029951Y-101257820D01*
X128154890Y-101429786D01*
X128305213Y-101580109D01*
X128477182Y-101705050D01*
X128485946Y-101709516D01*
X128536742Y-101757491D01*
X128553536Y-101825312D01*
X128530998Y-101891447D01*
X128485946Y-101930484D01*
X128477182Y-101934949D01*
X128305213Y-102059890D01*
X128154890Y-102210213D01*
X128029949Y-102382182D01*
X128025202Y-102391499D01*
X127977227Y-102442293D01*
X127909405Y-102459087D01*
X127843271Y-102436548D01*
X127804234Y-102391495D01*
X127799626Y-102382452D01*
X127760270Y-102328282D01*
X127760269Y-102328282D01*
X127127962Y-102960590D01*
X127110925Y-102897007D01*
X127045099Y-102782993D01*
X126952007Y-102689901D01*
X126837993Y-102624075D01*
X126774409Y-102607037D01*
X127406716Y-101974728D01*
X127352547Y-101935373D01*
X127352547Y-101935372D01*
X127343500Y-101930763D01*
X127292706Y-101882788D01*
X127275912Y-101814966D01*
X127298451Y-101748832D01*
X127343508Y-101709793D01*
X127352816Y-101705051D01*
X127471728Y-101618657D01*
X127524786Y-101580109D01*
X127524788Y-101580106D01*
X127524792Y-101580104D01*
X127675104Y-101429792D01*
X127675106Y-101429788D01*
X127675109Y-101429786D01*
X127800048Y-101257820D01*
X127800047Y-101257820D01*
X127800051Y-101257816D01*
X127804514Y-101249054D01*
X127852488Y-101198259D01*
X127920308Y-101181463D01*
X127986444Y-101203999D01*
G37*
%TD.AperFunction*%
%TA.AperFunction,Conductor*%
G36*
X104924472Y-67119685D02*
G01*
X104961629Y-67156775D01*
X112905197Y-79469305D01*
X112925000Y-79536310D01*
X112925000Y-85150000D01*
X115725000Y-85150000D01*
X115725000Y-83171153D01*
X126924500Y-83171153D01*
X126924500Y-83328846D01*
X126955261Y-83483489D01*
X126955264Y-83483501D01*
X127015602Y-83629172D01*
X127015609Y-83629185D01*
X127103210Y-83760288D01*
X127103213Y-83760292D01*
X127214707Y-83871786D01*
X127214711Y-83871789D01*
X127345814Y-83959390D01*
X127345827Y-83959397D01*
X127491498Y-84019735D01*
X127491503Y-84019737D01*
X127646153Y-84050499D01*
X127646156Y-84050500D01*
X127646158Y-84050500D01*
X127803844Y-84050500D01*
X127803845Y-84050499D01*
X127958497Y-84019737D01*
X128104179Y-83959394D01*
X128104185Y-83959390D01*
X128235875Y-83871398D01*
X128302553Y-83850520D01*
X128304766Y-83850500D01*
X128945234Y-83850500D01*
X129012273Y-83870185D01*
X129014125Y-83871398D01*
X129145814Y-83959390D01*
X129145827Y-83959397D01*
X129291498Y-84019735D01*
X129291503Y-84019737D01*
X129446153Y-84050499D01*
X129446156Y-84050500D01*
X129446158Y-84050500D01*
X129603844Y-84050500D01*
X129603845Y-84050499D01*
X129758497Y-84019737D01*
X129904179Y-83959394D01*
X130035289Y-83871789D01*
X130146789Y-83760289D01*
X130234394Y-83629179D01*
X130294737Y-83483497D01*
X130325500Y-83328842D01*
X130325500Y-83171158D01*
X130325500Y-83171155D01*
X130325499Y-83171153D01*
X130294738Y-83016510D01*
X130294737Y-83016503D01*
X130294735Y-83016498D01*
X130234397Y-82870827D01*
X130234390Y-82870814D01*
X130146789Y-82739711D01*
X130146786Y-82739707D01*
X130035292Y-82628213D01*
X130035288Y-82628210D01*
X129904185Y-82540609D01*
X129904172Y-82540602D01*
X129758501Y-82480264D01*
X129758489Y-82480261D01*
X129603845Y-82449500D01*
X129603842Y-82449500D01*
X129446158Y-82449500D01*
X129446155Y-82449500D01*
X129291510Y-82480261D01*
X129291498Y-82480264D01*
X129145827Y-82540602D01*
X129145814Y-82540609D01*
X129014125Y-82628602D01*
X128947447Y-82649480D01*
X128945234Y-82649500D01*
X128304766Y-82649500D01*
X128237727Y-82629815D01*
X128235875Y-82628602D01*
X128104185Y-82540609D01*
X128104172Y-82540602D01*
X127958501Y-82480264D01*
X127958489Y-82480261D01*
X127803845Y-82449500D01*
X127803842Y-82449500D01*
X127646158Y-82449500D01*
X127646155Y-82449500D01*
X127491510Y-82480261D01*
X127491498Y-82480264D01*
X127345827Y-82540602D01*
X127345814Y-82540609D01*
X127214711Y-82628210D01*
X127214707Y-82628213D01*
X127103213Y-82739707D01*
X127103210Y-82739711D01*
X127015609Y-82870814D01*
X127015602Y-82870827D01*
X126955264Y-83016498D01*
X126955261Y-83016510D01*
X126924500Y-83171153D01*
X115725000Y-83171153D01*
X115725000Y-79594180D01*
X115744685Y-79527141D01*
X115781183Y-79490368D01*
X123353587Y-74543753D01*
X194675000Y-74543753D01*
X194675000Y-74550000D01*
X195591988Y-74550000D01*
X195559075Y-74607007D01*
X195525000Y-74734174D01*
X195525000Y-74865826D01*
X195559075Y-74992993D01*
X195591988Y-75050000D01*
X194675000Y-75050000D01*
X194675000Y-75056246D01*
X194708242Y-75266127D01*
X194708242Y-75266130D01*
X194773904Y-75468217D01*
X194870379Y-75657557D01*
X194995272Y-75829459D01*
X194995276Y-75829464D01*
X195145535Y-75979723D01*
X195145540Y-75979727D01*
X195317442Y-76104620D01*
X195506782Y-76201095D01*
X195708871Y-76266757D01*
X195775000Y-76277231D01*
X195775000Y-75233012D01*
X195832007Y-75265925D01*
X195959174Y-75300000D01*
X196090826Y-75300000D01*
X196217993Y-75265925D01*
X196275000Y-75233012D01*
X196275000Y-76277230D01*
X196341126Y-76266757D01*
X196341129Y-76266757D01*
X196543217Y-76201095D01*
X196732557Y-76104620D01*
X196904458Y-75979728D01*
X197043330Y-75840856D01*
X197104653Y-75807371D01*
X197174345Y-75812355D01*
X197230279Y-75854226D01*
X197236551Y-75863440D01*
X197240185Y-75869331D01*
X197240186Y-75869334D01*
X197332288Y-76018656D01*
X197456344Y-76142712D01*
X197605666Y-76234814D01*
X197772203Y-76289999D01*
X197874991Y-76300500D01*
X199175008Y-76300499D01*
X199277797Y-76289999D01*
X199444334Y-76234814D01*
X199593656Y-76142712D01*
X199717712Y-76018656D01*
X199809814Y-75869334D01*
X199864999Y-75702797D01*
X199875500Y-75600009D01*
X199875499Y-73999992D01*
X199864999Y-73897203D01*
X199832037Y-73797733D01*
X199829636Y-73727907D01*
X199865367Y-73667865D01*
X199927888Y-73636672D01*
X199973935Y-73637114D01*
X200013270Y-73644937D01*
X200041230Y-73650499D01*
X200041232Y-73650500D01*
X200041233Y-73650500D01*
X200208768Y-73650500D01*
X200208769Y-73650499D01*
X200373082Y-73617816D01*
X200527863Y-73553703D01*
X200667162Y-73460626D01*
X200785626Y-73342162D01*
X200878703Y-73202863D01*
X200942816Y-73048082D01*
X200975500Y-72883767D01*
X200975500Y-72716233D01*
X200942816Y-72551918D01*
X200878703Y-72397137D01*
X200825202Y-72317067D01*
X200785626Y-72257837D01*
X200667162Y-72139373D01*
X200527860Y-72046295D01*
X200373082Y-71982184D01*
X200373074Y-71982182D01*
X200208771Y-71949500D01*
X200208767Y-71949500D01*
X200041233Y-71949500D01*
X200041228Y-71949500D01*
X199876925Y-71982182D01*
X199876917Y-71982184D01*
X199722139Y-72046295D01*
X199582837Y-72139373D01*
X199464373Y-72257837D01*
X199371295Y-72397139D01*
X199307184Y-72551917D01*
X199307182Y-72551925D01*
X199274500Y-72716228D01*
X199274500Y-72883771D01*
X199307182Y-73048074D01*
X199307185Y-73048086D01*
X199342269Y-73132786D01*
X199349738Y-73202255D01*
X199318463Y-73264734D01*
X199258374Y-73300386D01*
X199215106Y-73303596D01*
X199175011Y-73299500D01*
X197874998Y-73299500D01*
X197874981Y-73299501D01*
X197772203Y-73310000D01*
X197772200Y-73310001D01*
X197605668Y-73365185D01*
X197605663Y-73365187D01*
X197456342Y-73457289D01*
X197332289Y-73581342D01*
X197236551Y-73736559D01*
X197184603Y-73783283D01*
X197115640Y-73794506D01*
X197051558Y-73766662D01*
X197043331Y-73759143D01*
X196904464Y-73620276D01*
X196904459Y-73620272D01*
X196732557Y-73495379D01*
X196543215Y-73398903D01*
X196341124Y-73333241D01*
X196275000Y-73322768D01*
X196275000Y-74366988D01*
X196217993Y-74334075D01*
X196090826Y-74300000D01*
X195959174Y-74300000D01*
X195832007Y-74334075D01*
X195775000Y-74366988D01*
X195775000Y-73322768D01*
X195774999Y-73322768D01*
X195708875Y-73333241D01*
X195506784Y-73398903D01*
X195317442Y-73495379D01*
X195145540Y-73620272D01*
X195145535Y-73620276D01*
X194995276Y-73770535D01*
X194995272Y-73770540D01*
X194870379Y-73942442D01*
X194773904Y-74131782D01*
X194708242Y-74333869D01*
X194708242Y-74333872D01*
X194675000Y-74543753D01*
X123353587Y-74543753D01*
X134486944Y-67270973D01*
X134553832Y-67250791D01*
X134554646Y-67250788D01*
X184041891Y-67285224D01*
X184108916Y-67304955D01*
X184154634Y-67357791D01*
X184164530Y-67426956D01*
X184135460Y-67490492D01*
X184076656Y-67528225D01*
X184065996Y-67530841D01*
X183997094Y-67544546D01*
X183997086Y-67544548D01*
X183686752Y-67638686D01*
X183387150Y-67762786D01*
X183387145Y-67762788D01*
X183101169Y-67915646D01*
X183101151Y-67915657D01*
X182831532Y-68095811D01*
X182831518Y-68095821D01*
X182580841Y-68301546D01*
X182351546Y-68530841D01*
X182145821Y-68781518D01*
X182145811Y-68781532D01*
X181965657Y-69051151D01*
X181965646Y-69051169D01*
X181812788Y-69337145D01*
X181812786Y-69337150D01*
X181688686Y-69636752D01*
X181594548Y-69947086D01*
X181594545Y-69947097D01*
X181531287Y-70265125D01*
X181531284Y-70265142D01*
X181506666Y-70515099D01*
X181503325Y-70549027D01*
X181499500Y-70587860D01*
X181499500Y-70912139D01*
X181531284Y-71234857D01*
X181531287Y-71234874D01*
X181594545Y-71552902D01*
X181594548Y-71552913D01*
X181688686Y-71863247D01*
X181812786Y-72162849D01*
X181812788Y-72162854D01*
X181965646Y-72448830D01*
X181965657Y-72448848D01*
X182145811Y-72718467D01*
X182145821Y-72718481D01*
X182351546Y-72969158D01*
X182580841Y-73198453D01*
X182580846Y-73198457D01*
X182580847Y-73198458D01*
X182831524Y-73404183D01*
X183101158Y-73584347D01*
X183101167Y-73584352D01*
X183101169Y-73584353D01*
X183387145Y-73737211D01*
X183387147Y-73737211D01*
X183387153Y-73737215D01*
X183686754Y-73861314D01*
X183997077Y-73955449D01*
X183997083Y-73955450D01*
X183997086Y-73955451D01*
X183997097Y-73955454D01*
X184196528Y-73995122D01*
X184315132Y-74018714D01*
X184637857Y-74050500D01*
X184637860Y-74050500D01*
X184962140Y-74050500D01*
X184962143Y-74050500D01*
X185284868Y-74018714D01*
X185442295Y-73987399D01*
X185602902Y-73955454D01*
X185602913Y-73955451D01*
X185602913Y-73955450D01*
X185602923Y-73955449D01*
X185913246Y-73861314D01*
X186212847Y-73737215D01*
X186498842Y-73584347D01*
X186768476Y-73404183D01*
X187019153Y-73198458D01*
X187248458Y-72969153D01*
X187454183Y-72718476D01*
X187634347Y-72448842D01*
X187787215Y-72162847D01*
X187911314Y-71863246D01*
X188005449Y-71552923D01*
X188005451Y-71552913D01*
X188005454Y-71552902D01*
X188052180Y-71317990D01*
X188068714Y-71234868D01*
X188100500Y-70912143D01*
X188100500Y-70587857D01*
X188068714Y-70265132D01*
X188025922Y-70050000D01*
X188005454Y-69947097D01*
X188005451Y-69947086D01*
X188005450Y-69947083D01*
X188005449Y-69947077D01*
X187911314Y-69636754D01*
X187787215Y-69337153D01*
X187634347Y-69051158D01*
X187454183Y-68781524D01*
X187248458Y-68530847D01*
X187248457Y-68530846D01*
X187248453Y-68530841D01*
X187019158Y-68301546D01*
X186768481Y-68095821D01*
X186768480Y-68095820D01*
X186768476Y-68095817D01*
X186498842Y-67915653D01*
X186498837Y-67915650D01*
X186498830Y-67915646D01*
X186212854Y-67762788D01*
X186212849Y-67762786D01*
X185913247Y-67638686D01*
X185602913Y-67544548D01*
X185602901Y-67544545D01*
X185539327Y-67531900D01*
X185477416Y-67499515D01*
X185442842Y-67438800D01*
X185446581Y-67369030D01*
X185487448Y-67312358D01*
X185552466Y-67286777D01*
X185563598Y-67286283D01*
X206864294Y-67301105D01*
X206931319Y-67320836D01*
X206977037Y-67373672D01*
X206988206Y-67425646D01*
X206844815Y-100262240D01*
X206824838Y-100329193D01*
X206796579Y-100359862D01*
X188200777Y-114712245D01*
X188135679Y-114737623D01*
X188067195Y-114723777D01*
X188017068Y-114675104D01*
X188007074Y-114649764D01*
X188006332Y-114649990D01*
X188005450Y-114647083D01*
X188005449Y-114647077D01*
X187911314Y-114336754D01*
X187787215Y-114037153D01*
X187771252Y-114007289D01*
X187634353Y-113751169D01*
X187634352Y-113751167D01*
X187634347Y-113751158D01*
X187454183Y-113481524D01*
X187248458Y-113230847D01*
X187248457Y-113230846D01*
X187248453Y-113230841D01*
X187019158Y-113001546D01*
X186768481Y-112795821D01*
X186768480Y-112795820D01*
X186768476Y-112795817D01*
X186498842Y-112615653D01*
X186498837Y-112615650D01*
X186498830Y-112615646D01*
X186212854Y-112462788D01*
X186212849Y-112462786D01*
X185913247Y-112338686D01*
X185602913Y-112244548D01*
X185602902Y-112244545D01*
X185284874Y-112181287D01*
X185284857Y-112181284D01*
X185040812Y-112157248D01*
X184962143Y-112149500D01*
X184637857Y-112149500D01*
X184565099Y-112156666D01*
X184315142Y-112181284D01*
X184315125Y-112181287D01*
X183997097Y-112244545D01*
X183997086Y-112244548D01*
X183686752Y-112338686D01*
X183387150Y-112462786D01*
X183387145Y-112462788D01*
X183101169Y-112615646D01*
X183101151Y-112615657D01*
X182831532Y-112795811D01*
X182831518Y-112795821D01*
X182580841Y-113001546D01*
X182351546Y-113230841D01*
X182145821Y-113481518D01*
X182145811Y-113481532D01*
X181965657Y-113751151D01*
X181965646Y-113751169D01*
X181812788Y-114037145D01*
X181812786Y-114037150D01*
X181688686Y-114336752D01*
X181594548Y-114647086D01*
X181594545Y-114647097D01*
X181531287Y-114965125D01*
X181531284Y-114965142D01*
X181499500Y-115287860D01*
X181499500Y-115612139D01*
X181531284Y-115934857D01*
X181531287Y-115934874D01*
X181594545Y-116252902D01*
X181594548Y-116252913D01*
X181685249Y-116551918D01*
X181688686Y-116563246D01*
X181803328Y-116840017D01*
X181812786Y-116862849D01*
X181812788Y-116862854D01*
X181965646Y-117148830D01*
X181965657Y-117148848D01*
X182145811Y-117418467D01*
X182145821Y-117418481D01*
X182351546Y-117669158D01*
X182580841Y-117898453D01*
X182580846Y-117898457D01*
X182580847Y-117898458D01*
X182831524Y-118104183D01*
X183101158Y-118284347D01*
X183210583Y-118342836D01*
X183260426Y-118391797D01*
X183275887Y-118459934D01*
X183252056Y-118525614D01*
X183227892Y-118550356D01*
X165964778Y-131874163D01*
X165899680Y-131899541D01*
X165889015Y-131900000D01*
X126679265Y-131900000D01*
X126612226Y-131880315D01*
X126588179Y-131860139D01*
X126585025Y-131856725D01*
X120457853Y-125223639D01*
X120426824Y-125161037D01*
X120434565Y-125091598D01*
X120478620Y-125037367D01*
X120545000Y-125015563D01*
X120548939Y-125015500D01*
X142790549Y-125015500D01*
X142877044Y-124998294D01*
X142919119Y-124989925D01*
X143040232Y-124939758D01*
X143149232Y-124866928D01*
X150491927Y-117524232D01*
X150564758Y-117415233D01*
X150579451Y-117379759D01*
X150614925Y-117294119D01*
X150640500Y-117165546D01*
X150640500Y-112974216D01*
X161077000Y-112974216D01*
X161077000Y-113175783D01*
X161108530Y-113374852D01*
X161170812Y-113566539D01*
X161248154Y-113718330D01*
X161262318Y-113746129D01*
X161380789Y-113909190D01*
X161523310Y-114051711D01*
X161686371Y-114170182D01*
X161865049Y-114261223D01*
X161865960Y-114261687D01*
X161961803Y-114292828D01*
X162057649Y-114323970D01*
X162149848Y-114338572D01*
X162256717Y-114355500D01*
X162256722Y-114355500D01*
X162458283Y-114355500D01*
X162554789Y-114340214D01*
X162657351Y-114323970D01*
X162849042Y-114261686D01*
X163028629Y-114170182D01*
X163191690Y-114051711D01*
X163334211Y-113909190D01*
X163452682Y-113746129D01*
X163517295Y-113619317D01*
X163565269Y-113568521D01*
X163633090Y-113551726D01*
X163699225Y-113574263D01*
X163738264Y-113619316D01*
X163802746Y-113745867D01*
X163832342Y-113786602D01*
X163832343Y-113786603D01*
X164390042Y-113228904D01*
X164403619Y-113279572D01*
X164473395Y-113400427D01*
X164572073Y-113499105D01*
X164692928Y-113568881D01*
X164743594Y-113582457D01*
X164185895Y-114140155D01*
X164226633Y-114169753D01*
X164406150Y-114261223D01*
X164406153Y-114261224D01*
X164597764Y-114323481D01*
X164796763Y-114355000D01*
X164998237Y-114355000D01*
X165197235Y-114323481D01*
X165388846Y-114261224D01*
X165388849Y-114261223D01*
X165568366Y-114169753D01*
X165609102Y-114140156D01*
X165609102Y-114140155D01*
X165051404Y-113582457D01*
X165102072Y-113568881D01*
X165222927Y-113499105D01*
X165321605Y-113400427D01*
X165391381Y-113279572D01*
X165404957Y-113228904D01*
X165962655Y-113786602D01*
X165962656Y-113786602D01*
X165992253Y-113745866D01*
X166056734Y-113619317D01*
X166104709Y-113568521D01*
X166172530Y-113551726D01*
X166238665Y-113574263D01*
X166277704Y-113619317D01*
X166342318Y-113746129D01*
X166460789Y-113909190D01*
X166603310Y-114051711D01*
X166766371Y-114170182D01*
X166945049Y-114261223D01*
X166945960Y-114261687D01*
X167041803Y-114292828D01*
X167137649Y-114323970D01*
X167229848Y-114338572D01*
X167336717Y-114355500D01*
X167336722Y-114355500D01*
X167538283Y-114355500D01*
X167634789Y-114340214D01*
X167737351Y-114323970D01*
X167929042Y-114261686D01*
X168108629Y-114170182D01*
X168271690Y-114051711D01*
X168414211Y-113909190D01*
X168532682Y-113746129D01*
X168624186Y-113566542D01*
X168686470Y-113374851D01*
X168709279Y-113230841D01*
X168718000Y-113175783D01*
X168718000Y-112974216D01*
X168689743Y-112795817D01*
X168686470Y-112775149D01*
X168634647Y-112615653D01*
X168624187Y-112583460D01*
X168585232Y-112507007D01*
X168532682Y-112403871D01*
X168414211Y-112240810D01*
X168271690Y-112098289D01*
X168108629Y-111979818D01*
X167929039Y-111888312D01*
X167737352Y-111826030D01*
X167538283Y-111794500D01*
X167538278Y-111794500D01*
X167336722Y-111794500D01*
X167336717Y-111794500D01*
X167137647Y-111826030D01*
X166945960Y-111888312D01*
X166766370Y-111979818D01*
X166725045Y-112009843D01*
X166603310Y-112098289D01*
X166603308Y-112098291D01*
X166603307Y-112098291D01*
X166460791Y-112240807D01*
X166460791Y-112240808D01*
X166460789Y-112240810D01*
X166417857Y-112299901D01*
X166342318Y-112403870D01*
X166277704Y-112530682D01*
X166229729Y-112581478D01*
X166161908Y-112598273D01*
X166095773Y-112575735D01*
X166056734Y-112530682D01*
X165992253Y-112404133D01*
X165962655Y-112363396D01*
X165962655Y-112363395D01*
X165404957Y-112921094D01*
X165391381Y-112870428D01*
X165321605Y-112749573D01*
X165222927Y-112650895D01*
X165102072Y-112581119D01*
X165051403Y-112567542D01*
X165609103Y-112009843D01*
X165609102Y-112009842D01*
X165568369Y-111980248D01*
X165388849Y-111888776D01*
X165388846Y-111888775D01*
X165197235Y-111826518D01*
X164998237Y-111795000D01*
X164796763Y-111795000D01*
X164597764Y-111826518D01*
X164406153Y-111888775D01*
X164406150Y-111888776D01*
X164226635Y-111980245D01*
X164226633Y-111980246D01*
X164185896Y-112009842D01*
X164185896Y-112009843D01*
X164743596Y-112567542D01*
X164692928Y-112581119D01*
X164572073Y-112650895D01*
X164473395Y-112749573D01*
X164403619Y-112870428D01*
X164390042Y-112921095D01*
X163832343Y-112363396D01*
X163832342Y-112363396D01*
X163802746Y-112404133D01*
X163802742Y-112404140D01*
X163738264Y-112530683D01*
X163690289Y-112581478D01*
X163622468Y-112598273D01*
X163556333Y-112575735D01*
X163517295Y-112530682D01*
X163505232Y-112507007D01*
X163452682Y-112403871D01*
X163334211Y-112240810D01*
X163191690Y-112098289D01*
X163028629Y-111979818D01*
X162849039Y-111888312D01*
X162657352Y-111826030D01*
X162458283Y-111794500D01*
X162458278Y-111794500D01*
X162256722Y-111794500D01*
X162256717Y-111794500D01*
X162057647Y-111826030D01*
X161865960Y-111888312D01*
X161686370Y-111979818D01*
X161645045Y-112009843D01*
X161523310Y-112098289D01*
X161523308Y-112098291D01*
X161523307Y-112098291D01*
X161380791Y-112240807D01*
X161380791Y-112240808D01*
X161380789Y-112240810D01*
X161337857Y-112299901D01*
X161262318Y-112403870D01*
X161170812Y-112583460D01*
X161108530Y-112775147D01*
X161077000Y-112974216D01*
X150640500Y-112974216D01*
X150640500Y-101132485D01*
X150660185Y-101065446D01*
X150661398Y-101063594D01*
X150669831Y-101050973D01*
X150684394Y-101029179D01*
X150744737Y-100883497D01*
X150775500Y-100728842D01*
X150775500Y-100571158D01*
X150775500Y-100571155D01*
X150775499Y-100571153D01*
X150754911Y-100467650D01*
X150744737Y-100416503D01*
X150726698Y-100372952D01*
X150684397Y-100270827D01*
X150684390Y-100270814D01*
X150596789Y-100139711D01*
X150596786Y-100139707D01*
X150485292Y-100028213D01*
X150485288Y-100028210D01*
X150354185Y-99940609D01*
X150354172Y-99940602D01*
X150208501Y-99880264D01*
X150208489Y-99880261D01*
X150053845Y-99849500D01*
X150053842Y-99849500D01*
X149896158Y-99849500D01*
X149896155Y-99849500D01*
X149741510Y-99880261D01*
X149741498Y-99880264D01*
X149595827Y-99940602D01*
X149595814Y-99940609D01*
X149464711Y-100028210D01*
X149464707Y-100028213D01*
X149353213Y-100139707D01*
X149353210Y-100139711D01*
X149265609Y-100270814D01*
X149265602Y-100270827D01*
X149223302Y-100372952D01*
X149179462Y-100427356D01*
X149113167Y-100449421D01*
X149108741Y-100449500D01*
X148946155Y-100449500D01*
X148791510Y-100480261D01*
X148791498Y-100480264D01*
X148645827Y-100540602D01*
X148645814Y-100540609D01*
X148514711Y-100628210D01*
X148514707Y-100628213D01*
X148403213Y-100739707D01*
X148403210Y-100739711D01*
X148315609Y-100870814D01*
X148315602Y-100870827D01*
X148255264Y-101016498D01*
X148255261Y-101016508D01*
X148224361Y-101171850D01*
X148191976Y-101233761D01*
X148190425Y-101235339D01*
X146611584Y-102814181D01*
X146550261Y-102847666D01*
X146523903Y-102850500D01*
X142943046Y-102850500D01*
X142914850Y-102842220D01*
X142886002Y-102836600D01*
X142881708Y-102832489D01*
X142876007Y-102830815D01*
X142856767Y-102808611D01*
X142835533Y-102788282D01*
X142832769Y-102780916D01*
X142830252Y-102778011D01*
X142822482Y-102755489D01*
X142821910Y-102753110D01*
X142794737Y-102616503D01*
X142781211Y-102583849D01*
X142778936Y-102574385D01*
X142779401Y-102565012D01*
X142775500Y-102545396D01*
X142775500Y-99704604D01*
X142784939Y-99657151D01*
X142787997Y-99649768D01*
X142794737Y-99633497D01*
X142825500Y-99478842D01*
X142825500Y-99321158D01*
X142825500Y-99321155D01*
X142825499Y-99321153D01*
X142817895Y-99282926D01*
X142794737Y-99166503D01*
X142767191Y-99100000D01*
X142734397Y-99020827D01*
X142734390Y-99020814D01*
X142646789Y-98889711D01*
X142646786Y-98889707D01*
X142535292Y-98778213D01*
X142535288Y-98778210D01*
X142404185Y-98690609D01*
X142404172Y-98690602D01*
X142258501Y-98630264D01*
X142258489Y-98630261D01*
X142103845Y-98599500D01*
X142103842Y-98599500D01*
X141946158Y-98599500D01*
X141946155Y-98599500D01*
X141791510Y-98630261D01*
X141791498Y-98630264D01*
X141645827Y-98690602D01*
X141645814Y-98690609D01*
X141514711Y-98778210D01*
X141514707Y-98778213D01*
X141403213Y-98889707D01*
X141403210Y-98889711D01*
X141315609Y-99020814D01*
X141315602Y-99020827D01*
X141255264Y-99166498D01*
X141255261Y-99166510D01*
X141224500Y-99321153D01*
X141224500Y-99478846D01*
X141255261Y-99633489D01*
X141255263Y-99633497D01*
X141265061Y-99657151D01*
X141274500Y-99704604D01*
X141274500Y-100738770D01*
X141254815Y-100805809D01*
X141202011Y-100851564D01*
X141132853Y-100861508D01*
X141069297Y-100832483D01*
X141062819Y-100826451D01*
X134582667Y-94346299D01*
X134549182Y-94284976D01*
X134554166Y-94215284D01*
X134596038Y-94159351D01*
X134661502Y-94134934D01*
X134702435Y-94138842D01*
X134745943Y-94150500D01*
X136538445Y-94150500D01*
X136605484Y-94170185D01*
X136651239Y-94222989D01*
X136661183Y-94292147D01*
X136656159Y-94310411D01*
X136657031Y-94310676D01*
X136655261Y-94316510D01*
X136624500Y-94471153D01*
X136624500Y-94628846D01*
X136655261Y-94783489D01*
X136655264Y-94783501D01*
X136715602Y-94929172D01*
X136715609Y-94929185D01*
X136803210Y-95060288D01*
X136803213Y-95060292D01*
X136914707Y-95171786D01*
X136914711Y-95171789D01*
X137045814Y-95259390D01*
X137045827Y-95259397D01*
X137191498Y-95319735D01*
X137191503Y-95319737D01*
X137346153Y-95350499D01*
X137346156Y-95350500D01*
X137346158Y-95350500D01*
X137503844Y-95350500D01*
X137503845Y-95350499D01*
X137658497Y-95319737D01*
X137790507Y-95265057D01*
X137804172Y-95259397D01*
X137804172Y-95259396D01*
X137804179Y-95259394D01*
X137874747Y-95212242D01*
X137935875Y-95171398D01*
X138002553Y-95150520D01*
X138004766Y-95150500D01*
X144445234Y-95150500D01*
X144512273Y-95170185D01*
X144514125Y-95171398D01*
X144645814Y-95259390D01*
X144645827Y-95259397D01*
X144791498Y-95319735D01*
X144791503Y-95319737D01*
X144946153Y-95350499D01*
X144946156Y-95350500D01*
X144946158Y-95350500D01*
X145103844Y-95350500D01*
X145103845Y-95350499D01*
X145258497Y-95319737D01*
X145390398Y-95265102D01*
X163440000Y-95265102D01*
X163440000Y-95474897D01*
X163480925Y-95680641D01*
X163480927Y-95680649D01*
X163561207Y-95874464D01*
X163595563Y-95925882D01*
X164140000Y-95381445D01*
X164140000Y-95418053D01*
X164164874Y-95510885D01*
X164212927Y-95594116D01*
X164280884Y-95662073D01*
X164364115Y-95710126D01*
X164456947Y-95735000D01*
X164493553Y-95735000D01*
X163949116Y-96279434D01*
X163949117Y-96279435D01*
X164000528Y-96313788D01*
X164000534Y-96313791D01*
X164194350Y-96394072D01*
X164194358Y-96394074D01*
X164400102Y-96434999D01*
X164400106Y-96435000D01*
X164609894Y-96435000D01*
X164609897Y-96434999D01*
X164815641Y-96394074D01*
X164815649Y-96394072D01*
X165009465Y-96313791D01*
X165009473Y-96313787D01*
X165060881Y-96279435D01*
X165060882Y-96279434D01*
X164516448Y-95735000D01*
X164553053Y-95735000D01*
X164645885Y-95710126D01*
X164729116Y-95662073D01*
X164797073Y-95594116D01*
X164845126Y-95510885D01*
X164870000Y-95418053D01*
X164870000Y-95381447D01*
X165414434Y-95925882D01*
X165414435Y-95925881D01*
X165448787Y-95874473D01*
X165448791Y-95874465D01*
X165529072Y-95680649D01*
X165529074Y-95680641D01*
X165569989Y-95474945D01*
X171379499Y-95474945D01*
X171420445Y-95680789D01*
X171420447Y-95680795D01*
X171500765Y-95874701D01*
X171617373Y-96049218D01*
X171765781Y-96197626D01*
X171940298Y-96314234D01*
X172037251Y-96354393D01*
X172134205Y-96394553D01*
X172134209Y-96394553D01*
X172134210Y-96394554D01*
X172340054Y-96435500D01*
X172340057Y-96435500D01*
X172549945Y-96435500D01*
X172688433Y-96407952D01*
X172755795Y-96394553D01*
X172949703Y-96314233D01*
X173124216Y-96197628D01*
X173272628Y-96049216D01*
X173389233Y-95874703D01*
X173469553Y-95680795D01*
X173510500Y-95474943D01*
X173510500Y-95265057D01*
X173510500Y-95265054D01*
X173469554Y-95059210D01*
X173469553Y-95059209D01*
X173469553Y-95059205D01*
X173426050Y-94954180D01*
X173389234Y-94865298D01*
X173272626Y-94690781D01*
X173124218Y-94542373D01*
X172949701Y-94425765D01*
X172755795Y-94345447D01*
X172755789Y-94345445D01*
X172549945Y-94304500D01*
X172549943Y-94304500D01*
X172340057Y-94304500D01*
X172340055Y-94304500D01*
X172134210Y-94345445D01*
X172134204Y-94345447D01*
X171940298Y-94425765D01*
X171765781Y-94542373D01*
X171617373Y-94690781D01*
X171500765Y-94865298D01*
X171420447Y-95059204D01*
X171420445Y-95059210D01*
X171379500Y-95265054D01*
X171379500Y-95265057D01*
X171379500Y-95474943D01*
X171379500Y-95474945D01*
X171379499Y-95474945D01*
X165569989Y-95474945D01*
X165569999Y-95474897D01*
X165570000Y-95474894D01*
X165570000Y-95265105D01*
X165569999Y-95265103D01*
X165529074Y-95059358D01*
X165529072Y-95059350D01*
X165448791Y-94865534D01*
X165448788Y-94865528D01*
X165414435Y-94814117D01*
X165414434Y-94814116D01*
X164870000Y-95358551D01*
X164870000Y-95321947D01*
X164845126Y-95229115D01*
X164797073Y-95145884D01*
X164729116Y-95077927D01*
X164645885Y-95029874D01*
X164553053Y-95005000D01*
X164516447Y-95005000D01*
X165060882Y-94460563D01*
X165009464Y-94426207D01*
X164815649Y-94345927D01*
X164815641Y-94345925D01*
X164609897Y-94305000D01*
X164400102Y-94305000D01*
X164194358Y-94345925D01*
X164194350Y-94345927D01*
X164000535Y-94426207D01*
X164000532Y-94426209D01*
X163949117Y-94460564D01*
X164493554Y-95005000D01*
X164456947Y-95005000D01*
X164364115Y-95029874D01*
X164280884Y-95077927D01*
X164212927Y-95145884D01*
X164164874Y-95229115D01*
X164140000Y-95321947D01*
X164140000Y-95358553D01*
X163595564Y-94814117D01*
X163561209Y-94865532D01*
X163561207Y-94865535D01*
X163480927Y-95059350D01*
X163480925Y-95059358D01*
X163440000Y-95265102D01*
X145390398Y-95265102D01*
X145390507Y-95265057D01*
X145404172Y-95259397D01*
X145404172Y-95259396D01*
X145404179Y-95259394D01*
X145535289Y-95171789D01*
X145535292Y-95171786D01*
X145535745Y-95171334D01*
X145646786Y-95060292D01*
X145646789Y-95060289D01*
X145734394Y-94929179D01*
X145794737Y-94783497D01*
X145825500Y-94628842D01*
X145825500Y-94471158D01*
X145825500Y-94471155D01*
X145825499Y-94471153D01*
X145823393Y-94460564D01*
X145794737Y-94316503D01*
X145789765Y-94304500D01*
X145734396Y-94170825D01*
X145734394Y-94170822D01*
X145734394Y-94170821D01*
X145699694Y-94118889D01*
X145678816Y-94052215D01*
X145697300Y-93984835D01*
X145699676Y-93981136D01*
X145734394Y-93929179D01*
X145794737Y-93783497D01*
X145825500Y-93628842D01*
X145825500Y-93471158D01*
X145825500Y-93471155D01*
X145825499Y-93471153D01*
X145809369Y-93390062D01*
X145794737Y-93316503D01*
X145794735Y-93316498D01*
X145734397Y-93170827D01*
X145734390Y-93170814D01*
X145646789Y-93039711D01*
X145646786Y-93039707D01*
X145542024Y-92934945D01*
X163439499Y-92934945D01*
X163480445Y-93140789D01*
X163480447Y-93140795D01*
X163560765Y-93334701D01*
X163677373Y-93509218D01*
X163825781Y-93657626D01*
X164000298Y-93774234D01*
X164097251Y-93814393D01*
X164194205Y-93854553D01*
X164194209Y-93854553D01*
X164194210Y-93854554D01*
X164400054Y-93895500D01*
X164400057Y-93895500D01*
X164609945Y-93895500D01*
X164748433Y-93867952D01*
X164815795Y-93854553D01*
X165009703Y-93774233D01*
X165184216Y-93657628D01*
X165332628Y-93509216D01*
X165449233Y-93334703D01*
X165529553Y-93140795D01*
X165553352Y-93021153D01*
X165570500Y-92934945D01*
X171379499Y-92934945D01*
X171420445Y-93140789D01*
X171420447Y-93140795D01*
X171500765Y-93334701D01*
X171617373Y-93509218D01*
X171765781Y-93657626D01*
X171940298Y-93774234D01*
X172037251Y-93814393D01*
X172134205Y-93854553D01*
X172134209Y-93854553D01*
X172134210Y-93854554D01*
X172340054Y-93895500D01*
X172340057Y-93895500D01*
X172549945Y-93895500D01*
X172688433Y-93867952D01*
X172755795Y-93854553D01*
X172949703Y-93774233D01*
X173124216Y-93657628D01*
X173272628Y-93509216D01*
X173389233Y-93334703D01*
X173469553Y-93140795D01*
X173493352Y-93021153D01*
X173510500Y-92934945D01*
X173510500Y-92725054D01*
X173469554Y-92519210D01*
X173469553Y-92519209D01*
X173469553Y-92519205D01*
X173418889Y-92396893D01*
X173389234Y-92325298D01*
X173272626Y-92150781D01*
X173124218Y-92002373D01*
X172949701Y-91885765D01*
X172755795Y-91805447D01*
X172755789Y-91805445D01*
X172549945Y-91764500D01*
X172549943Y-91764500D01*
X172340057Y-91764500D01*
X172340055Y-91764500D01*
X172134210Y-91805445D01*
X172134204Y-91805447D01*
X171940298Y-91885765D01*
X171765781Y-92002373D01*
X171617373Y-92150781D01*
X171500765Y-92325298D01*
X171420447Y-92519204D01*
X171420445Y-92519210D01*
X171379500Y-92725054D01*
X171379500Y-92725057D01*
X171379500Y-92934943D01*
X171379500Y-92934945D01*
X171379499Y-92934945D01*
X165570500Y-92934945D01*
X165570500Y-92725054D01*
X165529554Y-92519210D01*
X165529553Y-92519209D01*
X165529553Y-92519205D01*
X165478889Y-92396893D01*
X165449234Y-92325298D01*
X165332626Y-92150781D01*
X165184218Y-92002373D01*
X165009701Y-91885765D01*
X164815795Y-91805447D01*
X164815789Y-91805445D01*
X164609945Y-91764500D01*
X164609943Y-91764500D01*
X164400057Y-91764500D01*
X164400055Y-91764500D01*
X164194210Y-91805445D01*
X164194204Y-91805447D01*
X164000298Y-91885765D01*
X163825781Y-92002373D01*
X163677373Y-92150781D01*
X163560765Y-92325298D01*
X163480447Y-92519204D01*
X163480445Y-92519210D01*
X163439500Y-92725054D01*
X163439500Y-92725057D01*
X163439500Y-92934943D01*
X163439500Y-92934945D01*
X163439499Y-92934945D01*
X145542024Y-92934945D01*
X145535292Y-92928213D01*
X145535288Y-92928210D01*
X145404185Y-92840609D01*
X145404175Y-92840604D01*
X145387087Y-92833526D01*
X145387085Y-92833525D01*
X145258501Y-92780264D01*
X145258489Y-92780261D01*
X145103845Y-92749500D01*
X145103842Y-92749500D01*
X144946158Y-92749500D01*
X144946155Y-92749500D01*
X144791510Y-92780261D01*
X144791498Y-92780264D01*
X144645827Y-92840602D01*
X144645814Y-92840609D01*
X144514125Y-92928602D01*
X144447447Y-92949480D01*
X144445234Y-92949500D01*
X135261878Y-92949500D01*
X135194839Y-92929815D01*
X135149084Y-92877011D01*
X135147215Y-92872069D01*
X135147068Y-92872131D01*
X135084397Y-92720827D01*
X135084390Y-92720814D01*
X134996789Y-92589711D01*
X134996786Y-92589707D01*
X134885292Y-92478213D01*
X134885288Y-92478210D01*
X134754185Y-92390609D01*
X134754172Y-92390602D01*
X134608501Y-92330264D01*
X134608489Y-92330261D01*
X134453845Y-92299500D01*
X134453842Y-92299500D01*
X134296158Y-92299500D01*
X134296155Y-92299500D01*
X134141510Y-92330261D01*
X134141498Y-92330264D01*
X133995827Y-92390602D01*
X133995814Y-92390609D01*
X133864711Y-92478210D01*
X133864707Y-92478213D01*
X133753213Y-92589707D01*
X133753210Y-92589711D01*
X133665609Y-92720814D01*
X133665602Y-92720827D01*
X133605264Y-92866498D01*
X133605261Y-92866510D01*
X133574500Y-93021153D01*
X133574500Y-93038770D01*
X133554815Y-93105809D01*
X133502011Y-93151564D01*
X133432853Y-93161508D01*
X133369297Y-93132483D01*
X133362819Y-93126451D01*
X130182521Y-89946153D01*
X134724500Y-89946153D01*
X134724500Y-90103846D01*
X134755261Y-90258489D01*
X134755264Y-90258501D01*
X134815602Y-90404172D01*
X134815609Y-90404185D01*
X134903210Y-90535288D01*
X134903213Y-90535292D01*
X135014707Y-90646786D01*
X135014711Y-90646789D01*
X135145814Y-90734390D01*
X135145827Y-90734397D01*
X135291416Y-90794701D01*
X135291503Y-90794737D01*
X135446153Y-90825499D01*
X135446156Y-90825500D01*
X135446158Y-90825500D01*
X135603844Y-90825500D01*
X135603845Y-90825499D01*
X135758497Y-90794737D01*
X135904179Y-90734394D01*
X136035289Y-90646789D01*
X136146789Y-90535289D01*
X136233439Y-90405609D01*
X136287051Y-90360804D01*
X136336541Y-90350500D01*
X148470234Y-90350500D01*
X148537273Y-90370185D01*
X148539125Y-90371398D01*
X148670814Y-90459390D01*
X148670827Y-90459397D01*
X148816498Y-90519735D01*
X148816503Y-90519737D01*
X148971153Y-90550499D01*
X148971156Y-90550500D01*
X148971158Y-90550500D01*
X149128844Y-90550500D01*
X149128845Y-90550499D01*
X149283497Y-90519737D01*
X149429179Y-90459394D01*
X149560289Y-90371789D01*
X149671789Y-90260289D01*
X149722027Y-90185102D01*
X163440000Y-90185102D01*
X163440000Y-90394897D01*
X163480925Y-90600641D01*
X163480927Y-90600649D01*
X163561207Y-90794464D01*
X163595563Y-90845882D01*
X164140000Y-90301445D01*
X164140000Y-90338053D01*
X164164874Y-90430885D01*
X164212927Y-90514116D01*
X164280884Y-90582073D01*
X164364115Y-90630126D01*
X164456947Y-90655000D01*
X164493553Y-90655000D01*
X163949116Y-91199434D01*
X163949117Y-91199435D01*
X164000528Y-91233788D01*
X164000534Y-91233791D01*
X164194350Y-91314072D01*
X164194358Y-91314074D01*
X164400102Y-91354999D01*
X164400106Y-91355000D01*
X164609894Y-91355000D01*
X164609897Y-91354999D01*
X164815641Y-91314074D01*
X164815649Y-91314072D01*
X165009465Y-91233791D01*
X165009473Y-91233787D01*
X165060881Y-91199435D01*
X165060882Y-91199434D01*
X164516448Y-90655000D01*
X164553053Y-90655000D01*
X164645885Y-90630126D01*
X164729116Y-90582073D01*
X164797073Y-90514116D01*
X164845126Y-90430885D01*
X164870000Y-90338053D01*
X164870000Y-90301447D01*
X165414434Y-90845882D01*
X165414435Y-90845881D01*
X165448787Y-90794473D01*
X165448791Y-90794465D01*
X165529072Y-90600649D01*
X165529074Y-90600641D01*
X165569989Y-90394945D01*
X171379499Y-90394945D01*
X171420445Y-90600789D01*
X171420447Y-90600795D01*
X171500765Y-90794701D01*
X171617373Y-90969218D01*
X171765781Y-91117626D01*
X171940298Y-91234234D01*
X172037251Y-91274393D01*
X172134205Y-91314553D01*
X172134209Y-91314553D01*
X172134210Y-91314554D01*
X172340054Y-91355500D01*
X172340057Y-91355500D01*
X172549945Y-91355500D01*
X172688433Y-91327952D01*
X172755795Y-91314553D01*
X172949703Y-91234233D01*
X173124216Y-91117628D01*
X173272628Y-90969216D01*
X173389233Y-90794703D01*
X173469553Y-90600795D01*
X173497681Y-90459390D01*
X173510500Y-90394945D01*
X173510500Y-90185054D01*
X173469554Y-89979210D01*
X173469553Y-89979209D01*
X173469553Y-89979205D01*
X173389332Y-89785535D01*
X173389234Y-89785298D01*
X173272626Y-89610781D01*
X173124218Y-89462373D01*
X172949701Y-89345765D01*
X172755795Y-89265447D01*
X172755789Y-89265445D01*
X172549945Y-89224500D01*
X172549943Y-89224500D01*
X172340057Y-89224500D01*
X172340055Y-89224500D01*
X172134210Y-89265445D01*
X172134204Y-89265447D01*
X171940298Y-89345765D01*
X171765781Y-89462373D01*
X171617373Y-89610781D01*
X171500765Y-89785298D01*
X171420447Y-89979204D01*
X171420445Y-89979210D01*
X171379500Y-90185054D01*
X171379500Y-90185057D01*
X171379500Y-90394943D01*
X171379500Y-90394945D01*
X171379499Y-90394945D01*
X165569989Y-90394945D01*
X165569999Y-90394897D01*
X165570000Y-90394894D01*
X165570000Y-90185105D01*
X165569999Y-90185103D01*
X165529074Y-89979358D01*
X165529072Y-89979350D01*
X165448791Y-89785534D01*
X165448788Y-89785528D01*
X165414435Y-89734117D01*
X165414434Y-89734116D01*
X164870000Y-90278551D01*
X164870000Y-90241947D01*
X164845126Y-90149115D01*
X164797073Y-90065884D01*
X164729116Y-89997927D01*
X164645885Y-89949874D01*
X164553053Y-89925000D01*
X164516447Y-89925000D01*
X165060882Y-89380563D01*
X165009464Y-89346207D01*
X164815649Y-89265927D01*
X164815641Y-89265925D01*
X164609897Y-89225000D01*
X164400102Y-89225000D01*
X164194358Y-89265925D01*
X164194350Y-89265927D01*
X164000535Y-89346207D01*
X164000532Y-89346209D01*
X163949117Y-89380564D01*
X164493554Y-89925000D01*
X164456947Y-89925000D01*
X164364115Y-89949874D01*
X164280884Y-89997927D01*
X164212927Y-90065884D01*
X164164874Y-90149115D01*
X164140000Y-90241947D01*
X164140000Y-90278553D01*
X163595564Y-89734117D01*
X163561212Y-89785528D01*
X163561207Y-89785535D01*
X163480927Y-89979350D01*
X163480925Y-89979358D01*
X163440000Y-90185102D01*
X149722027Y-90185102D01*
X149759394Y-90129179D01*
X149819737Y-89983497D01*
X149850500Y-89828842D01*
X149850500Y-89671158D01*
X149850500Y-89671155D01*
X149850499Y-89671153D01*
X149838490Y-89610781D01*
X149819737Y-89516503D01*
X149763430Y-89380564D01*
X149759397Y-89370827D01*
X149759390Y-89370814D01*
X149671789Y-89239711D01*
X149671786Y-89239707D01*
X149560292Y-89128213D01*
X149560288Y-89128210D01*
X149429185Y-89040609D01*
X149429172Y-89040602D01*
X149283501Y-88980264D01*
X149283489Y-88980261D01*
X149128845Y-88949500D01*
X149128842Y-88949500D01*
X148971158Y-88949500D01*
X148971155Y-88949500D01*
X148816510Y-88980261D01*
X148816498Y-88980264D01*
X148670827Y-89040602D01*
X148670814Y-89040609D01*
X148539125Y-89128602D01*
X148472447Y-89149480D01*
X148470234Y-89149500D01*
X135886670Y-89149500D01*
X135886654Y-89149499D01*
X135879058Y-89149499D01*
X135720943Y-89149499D01*
X135644579Y-89169961D01*
X135568214Y-89190423D01*
X135568209Y-89190425D01*
X135537966Y-89207887D01*
X135475967Y-89224500D01*
X135446155Y-89224500D01*
X135291510Y-89255261D01*
X135291498Y-89255264D01*
X135145827Y-89315602D01*
X135145814Y-89315609D01*
X135014711Y-89403210D01*
X135014707Y-89403213D01*
X134903213Y-89514707D01*
X134903210Y-89514711D01*
X134815609Y-89645814D01*
X134815602Y-89645827D01*
X134755264Y-89791498D01*
X134755261Y-89791510D01*
X134724500Y-89946153D01*
X130182521Y-89946153D01*
X129148549Y-88912181D01*
X129115064Y-88850858D01*
X129120048Y-88781166D01*
X129161920Y-88725233D01*
X129227384Y-88700816D01*
X129236230Y-88700500D01*
X134348920Y-88700500D01*
X134446462Y-88681096D01*
X134493913Y-88671658D01*
X134630495Y-88615084D01*
X134695291Y-88571789D01*
X134695294Y-88571786D01*
X134695296Y-88571786D01*
X134724547Y-88552240D01*
X134753416Y-88532952D01*
X135431425Y-87854943D01*
X136149234Y-87137135D01*
X163439500Y-87137135D01*
X163439500Y-88362870D01*
X163439501Y-88362876D01*
X163445908Y-88422483D01*
X163496202Y-88557328D01*
X163496206Y-88557335D01*
X163582452Y-88672544D01*
X163582455Y-88672547D01*
X163697664Y-88758793D01*
X163697671Y-88758797D01*
X163832517Y-88809091D01*
X163832516Y-88809091D01*
X163839444Y-88809835D01*
X163892127Y-88815500D01*
X165117872Y-88815499D01*
X165177483Y-88809091D01*
X165312331Y-88758796D01*
X165427546Y-88672546D01*
X165513796Y-88557331D01*
X165564091Y-88422483D01*
X165570500Y-88362873D01*
X165570500Y-87854945D01*
X171379499Y-87854945D01*
X171420445Y-88060789D01*
X171420447Y-88060795D01*
X171500765Y-88254701D01*
X171617373Y-88429218D01*
X171765781Y-88577626D01*
X171940298Y-88694234D01*
X172001873Y-88719739D01*
X172134205Y-88774553D01*
X172134209Y-88774553D01*
X172134210Y-88774554D01*
X172340054Y-88815500D01*
X172340057Y-88815500D01*
X172549945Y-88815500D01*
X172688433Y-88787952D01*
X172755795Y-88774553D01*
X172922447Y-88705523D01*
X172949701Y-88694234D01*
X172949701Y-88694233D01*
X172949703Y-88694233D01*
X173124216Y-88577628D01*
X173272628Y-88429216D01*
X173389233Y-88254703D01*
X173469553Y-88060795D01*
X173510500Y-87854943D01*
X173510500Y-87645057D01*
X173510500Y-87645054D01*
X173469554Y-87439210D01*
X173469553Y-87439209D01*
X173469553Y-87439205D01*
X173423577Y-87328210D01*
X173389234Y-87245298D01*
X173272626Y-87070781D01*
X173124218Y-86922373D01*
X172949701Y-86805765D01*
X172755795Y-86725447D01*
X172755789Y-86725445D01*
X172549945Y-86684500D01*
X172549943Y-86684500D01*
X172340057Y-86684500D01*
X172340055Y-86684500D01*
X172134210Y-86725445D01*
X172134204Y-86725447D01*
X171940298Y-86805765D01*
X171765781Y-86922373D01*
X171617373Y-87070781D01*
X171500765Y-87245298D01*
X171420447Y-87439204D01*
X171420445Y-87439210D01*
X171379500Y-87645054D01*
X171379500Y-87645057D01*
X171379500Y-87854943D01*
X171379500Y-87854945D01*
X171379499Y-87854945D01*
X165570500Y-87854945D01*
X165570499Y-87137128D01*
X165564091Y-87077517D01*
X165513796Y-86942669D01*
X165513795Y-86942668D01*
X165513793Y-86942664D01*
X165427547Y-86827455D01*
X165427544Y-86827452D01*
X165312335Y-86741206D01*
X165312328Y-86741202D01*
X165177482Y-86690908D01*
X165177483Y-86690908D01*
X165117883Y-86684501D01*
X165117881Y-86684500D01*
X165117873Y-86684500D01*
X165117864Y-86684500D01*
X163892129Y-86684500D01*
X163892123Y-86684501D01*
X163832516Y-86690908D01*
X163697671Y-86741202D01*
X163697664Y-86741206D01*
X163582455Y-86827452D01*
X163582452Y-86827455D01*
X163496206Y-86942664D01*
X163496202Y-86942671D01*
X163445908Y-87077517D01*
X163439501Y-87137116D01*
X163439501Y-87137123D01*
X163439500Y-87137135D01*
X136149234Y-87137135D01*
X136240244Y-87046125D01*
X141299548Y-81986819D01*
X141360871Y-81953334D01*
X141387229Y-81950500D01*
X155220396Y-81950500D01*
X155267844Y-81959937D01*
X155291503Y-81969737D01*
X155291508Y-81969738D01*
X155291511Y-81969739D01*
X155446153Y-82000499D01*
X155446156Y-82000500D01*
X155446158Y-82000500D01*
X155603844Y-82000500D01*
X155603845Y-82000499D01*
X155758497Y-81969737D01*
X155904179Y-81909394D01*
X156035289Y-81821789D01*
X156146789Y-81710289D01*
X156234394Y-81579179D01*
X156294737Y-81433497D01*
X156325500Y-81278842D01*
X156325500Y-81121158D01*
X156325500Y-81121155D01*
X156325499Y-81121153D01*
X156309672Y-81041585D01*
X156294737Y-80966503D01*
X156260855Y-80884704D01*
X156234397Y-80820827D01*
X156234390Y-80820814D01*
X156146789Y-80689711D01*
X156146786Y-80689707D01*
X156035292Y-80578213D01*
X156035288Y-80578210D01*
X155904185Y-80490609D01*
X155904172Y-80490602D01*
X155758501Y-80430264D01*
X155758489Y-80430261D01*
X155603845Y-80399500D01*
X155603842Y-80399500D01*
X155446158Y-80399500D01*
X155446155Y-80399500D01*
X155291511Y-80430260D01*
X155291506Y-80430262D01*
X155291504Y-80430262D01*
X155291503Y-80430263D01*
X155267844Y-80440062D01*
X155220396Y-80449500D01*
X141329604Y-80449500D01*
X141282155Y-80440062D01*
X141258497Y-80430263D01*
X141258493Y-80430262D01*
X141258488Y-80430260D01*
X141103845Y-80399500D01*
X141103842Y-80399500D01*
X140946158Y-80399500D01*
X140946155Y-80399500D01*
X140791510Y-80430261D01*
X140791498Y-80430264D01*
X140645827Y-80490602D01*
X140645814Y-80490609D01*
X140514711Y-80578210D01*
X140514707Y-80578213D01*
X140403213Y-80689707D01*
X140403207Y-80689715D01*
X140315607Y-80820818D01*
X140315605Y-80820822D01*
X140305805Y-80844480D01*
X140278927Y-80884704D01*
X134000451Y-87163181D01*
X133939128Y-87196666D01*
X133912770Y-87199500D01*
X126629604Y-87199500D01*
X126582155Y-87190062D01*
X126558497Y-87180263D01*
X126558493Y-87180262D01*
X126558488Y-87180260D01*
X126403845Y-87149500D01*
X126403842Y-87149500D01*
X126246158Y-87149500D01*
X126246155Y-87149500D01*
X126091511Y-87180260D01*
X126091506Y-87180262D01*
X126091504Y-87180262D01*
X126091503Y-87180263D01*
X126067844Y-87190062D01*
X126020396Y-87199500D01*
X111129604Y-87199500D01*
X111082155Y-87190062D01*
X111058497Y-87180263D01*
X111058493Y-87180262D01*
X111058488Y-87180260D01*
X110903845Y-87149500D01*
X110903842Y-87149500D01*
X110746158Y-87149500D01*
X110746155Y-87149500D01*
X110591510Y-87180261D01*
X110591498Y-87180264D01*
X110445827Y-87240602D01*
X110445814Y-87240609D01*
X110314711Y-87328210D01*
X110314707Y-87328213D01*
X110203213Y-87439707D01*
X110203210Y-87439711D01*
X110115609Y-87570814D01*
X110115602Y-87570827D01*
X110055264Y-87716498D01*
X110055261Y-87716510D01*
X110024500Y-87871153D01*
X110024500Y-88028846D01*
X110055261Y-88183489D01*
X110055264Y-88183501D01*
X110115602Y-88329172D01*
X110115609Y-88329185D01*
X110203210Y-88460288D01*
X110203213Y-88460292D01*
X110314707Y-88571786D01*
X110314711Y-88571789D01*
X110445814Y-88659390D01*
X110445827Y-88659397D01*
X110545060Y-88700500D01*
X110591503Y-88719737D01*
X110746153Y-88750499D01*
X110746156Y-88750500D01*
X110746158Y-88750500D01*
X110903844Y-88750500D01*
X110903845Y-88750499D01*
X110980152Y-88735320D01*
X111058488Y-88719739D01*
X111058489Y-88719738D01*
X111058497Y-88719737D01*
X111082155Y-88709937D01*
X111129604Y-88700500D01*
X126020396Y-88700500D01*
X126067844Y-88709937D01*
X126091503Y-88719737D01*
X126091508Y-88719738D01*
X126091511Y-88719739D01*
X126246153Y-88750499D01*
X126246156Y-88750500D01*
X126246158Y-88750500D01*
X126403844Y-88750500D01*
X126403845Y-88750499D01*
X126480152Y-88735320D01*
X126558488Y-88719739D01*
X126558489Y-88719738D01*
X126558497Y-88719737D01*
X126582155Y-88709937D01*
X126590329Y-88708311D01*
X126594669Y-88705523D01*
X126629604Y-88700500D01*
X126762770Y-88700500D01*
X126829809Y-88720185D01*
X126850451Y-88736819D01*
X130033164Y-91919532D01*
X130066649Y-91980855D01*
X130061665Y-92050547D01*
X130019793Y-92106480D01*
X129992936Y-92121774D01*
X129875597Y-92170377D01*
X129875587Y-92170382D01*
X129744484Y-92257983D01*
X129744480Y-92257986D01*
X129632986Y-92369480D01*
X129632983Y-92369484D01*
X129545382Y-92500587D01*
X129545375Y-92500600D01*
X129485037Y-92646271D01*
X129485034Y-92646283D01*
X129454273Y-92800926D01*
X129454273Y-92958619D01*
X129485034Y-93113262D01*
X129485037Y-93113274D01*
X129545375Y-93258945D01*
X129545382Y-93258958D01*
X129632983Y-93390061D01*
X129632986Y-93390065D01*
X129744480Y-93501559D01*
X129744484Y-93501562D01*
X129875587Y-93589163D01*
X129875600Y-93589170D01*
X129971383Y-93628844D01*
X130021276Y-93649510D01*
X130062078Y-93657626D01*
X130176622Y-93680411D01*
X130238533Y-93712796D01*
X130240112Y-93714347D01*
X130739804Y-94214039D01*
X130773289Y-94275362D01*
X130768305Y-94345054D01*
X130726433Y-94400987D01*
X130676318Y-94423337D01*
X130641504Y-94430262D01*
X130641498Y-94430264D01*
X130495827Y-94490602D01*
X130495814Y-94490609D01*
X130364125Y-94578602D01*
X130297447Y-94599480D01*
X130295234Y-94599500D01*
X110425098Y-94599500D01*
X110358059Y-94579815D01*
X110337417Y-94563181D01*
X108709573Y-92935337D01*
X108676088Y-92874014D01*
X108675637Y-92871847D01*
X108657420Y-92780264D01*
X108644737Y-92716503D01*
X108644735Y-92716498D01*
X108584397Y-92570827D01*
X108584390Y-92570814D01*
X108496789Y-92439711D01*
X108496786Y-92439707D01*
X108385292Y-92328213D01*
X108385288Y-92328210D01*
X108254185Y-92240609D01*
X108254172Y-92240602D01*
X108108501Y-92180264D01*
X108108489Y-92180261D01*
X107953845Y-92149500D01*
X107953842Y-92149500D01*
X107796158Y-92149500D01*
X107796155Y-92149500D01*
X107641510Y-92180261D01*
X107641498Y-92180264D01*
X107495827Y-92240602D01*
X107495814Y-92240609D01*
X107364711Y-92328210D01*
X107364707Y-92328213D01*
X107253213Y-92439707D01*
X107253210Y-92439711D01*
X107165609Y-92570814D01*
X107165602Y-92570827D01*
X107105264Y-92716498D01*
X107105261Y-92716510D01*
X107074500Y-92871153D01*
X107074500Y-93028846D01*
X107105261Y-93183489D01*
X107105264Y-93183501D01*
X107165602Y-93329172D01*
X107165609Y-93329185D01*
X107253210Y-93460288D01*
X107253213Y-93460292D01*
X107364707Y-93571786D01*
X107364711Y-93571789D01*
X107495814Y-93659390D01*
X107495827Y-93659397D01*
X107624746Y-93712796D01*
X107641503Y-93719737D01*
X107706147Y-93732595D01*
X107796849Y-93750638D01*
X107858760Y-93783023D01*
X107860338Y-93784573D01*
X109756284Y-95680520D01*
X109756286Y-95680521D01*
X109756290Y-95680524D01*
X109830820Y-95723553D01*
X109893216Y-95759577D01*
X110045943Y-95800501D01*
X110045945Y-95800501D01*
X110211654Y-95800501D01*
X110211670Y-95800500D01*
X130295234Y-95800500D01*
X130362273Y-95820185D01*
X130364125Y-95821398D01*
X130495814Y-95909390D01*
X130495827Y-95909397D01*
X130641498Y-95969735D01*
X130641503Y-95969737D01*
X130796153Y-96000499D01*
X130796156Y-96000500D01*
X130796158Y-96000500D01*
X130953844Y-96000500D01*
X130953845Y-96000499D01*
X131108497Y-95969737D01*
X131254179Y-95909394D01*
X131385289Y-95821789D01*
X131496789Y-95710289D01*
X131584394Y-95579179D01*
X131644737Y-95433497D01*
X131651662Y-95398685D01*
X131684047Y-95336774D01*
X131744762Y-95302200D01*
X131814532Y-95305939D01*
X131860959Y-95335194D01*
X140457284Y-103931520D01*
X140457286Y-103931521D01*
X140457290Y-103931524D01*
X140594209Y-104010573D01*
X140594212Y-104010575D01*
X140594216Y-104010577D01*
X140746943Y-104051501D01*
X140746945Y-104051501D01*
X140912654Y-104051501D01*
X140912670Y-104051500D01*
X146737331Y-104051500D01*
X146737347Y-104051501D01*
X146744943Y-104051501D01*
X146903054Y-104051501D01*
X146903057Y-104051501D01*
X147055785Y-104010577D01*
X147126426Y-103969792D01*
X147126437Y-103969786D01*
X147192709Y-103931524D01*
X147192708Y-103931524D01*
X147192716Y-103931520D01*
X147304520Y-103819716D01*
X147304520Y-103819714D01*
X147314724Y-103809511D01*
X147314727Y-103809506D01*
X149039662Y-102084572D01*
X149056255Y-102075511D01*
X149069865Y-102062380D01*
X149099362Y-102051973D01*
X149100983Y-102051089D01*
X149103149Y-102050638D01*
X149130004Y-102045296D01*
X149161308Y-102039069D01*
X149230900Y-102045296D01*
X149286077Y-102088158D01*
X149309322Y-102154048D01*
X149309500Y-102160686D01*
X149309500Y-116772978D01*
X149289815Y-116840017D01*
X149273181Y-116860659D01*
X142485659Y-123648181D01*
X142424336Y-123681666D01*
X142397978Y-123684500D01*
X119090371Y-123684500D01*
X119023332Y-123664815D01*
X118999285Y-123644639D01*
X118783423Y-123410954D01*
X117940387Y-122498309D01*
X115757914Y-120135631D01*
X115726885Y-120073029D01*
X115725000Y-120051492D01*
X115725000Y-114549983D01*
X118199500Y-114549983D01*
X118199500Y-115850001D01*
X118199501Y-115850018D01*
X118210000Y-115952796D01*
X118210001Y-115952799D01*
X118219739Y-115982185D01*
X118265186Y-116119334D01*
X118357288Y-116268656D01*
X118481344Y-116392712D01*
X118630666Y-116484814D01*
X118797203Y-116539999D01*
X118899991Y-116550500D01*
X120500008Y-116550499D01*
X120602797Y-116539999D01*
X120702266Y-116507037D01*
X120772091Y-116504636D01*
X120832133Y-116540367D01*
X120863327Y-116602887D01*
X120862886Y-116648934D01*
X120849500Y-116716234D01*
X120849500Y-116883771D01*
X120882182Y-117048074D01*
X120882184Y-117048082D01*
X120946295Y-117202860D01*
X121039373Y-117342162D01*
X121157837Y-117460626D01*
X121250494Y-117522537D01*
X121297137Y-117553703D01*
X121451918Y-117617816D01*
X121616228Y-117650499D01*
X121616232Y-117650500D01*
X121616233Y-117650500D01*
X121783768Y-117650500D01*
X121783769Y-117650499D01*
X121948082Y-117617816D01*
X122102863Y-117553703D01*
X122242162Y-117460626D01*
X122360626Y-117342162D01*
X122453703Y-117202863D01*
X122517816Y-117048082D01*
X122550500Y-116883767D01*
X122550500Y-116716233D01*
X122517816Y-116551918D01*
X122453703Y-116397137D01*
X122422537Y-116350494D01*
X122360626Y-116257837D01*
X122242162Y-116139373D01*
X122102860Y-116046295D01*
X121948082Y-115982184D01*
X121948074Y-115982182D01*
X121783771Y-115949500D01*
X121783767Y-115949500D01*
X121616233Y-115949500D01*
X121616228Y-115949500D01*
X121451925Y-115982182D01*
X121451913Y-115982185D01*
X121367213Y-116017269D01*
X121297744Y-116024738D01*
X121235265Y-115993462D01*
X121199613Y-115933373D01*
X121196403Y-115890108D01*
X121200500Y-115850009D01*
X121200499Y-114549992D01*
X121189999Y-114447203D01*
X121134814Y-114280666D01*
X121042712Y-114131344D01*
X120918656Y-114007288D01*
X120769334Y-113915186D01*
X120769332Y-113915185D01*
X120763440Y-113911551D01*
X120716716Y-113859603D01*
X120705493Y-113790641D01*
X120733337Y-113726558D01*
X120740856Y-113718330D01*
X120879728Y-113579458D01*
X121004620Y-113407557D01*
X121101095Y-113218217D01*
X121166757Y-113016129D01*
X121166757Y-113016126D01*
X121177231Y-112950000D01*
X120133012Y-112950000D01*
X120165925Y-112892993D01*
X120200000Y-112765826D01*
X120200000Y-112634174D01*
X120165925Y-112507007D01*
X120133012Y-112450000D01*
X121177231Y-112450000D01*
X121166757Y-112383873D01*
X121166757Y-112383870D01*
X121101095Y-112181782D01*
X121004620Y-111992442D01*
X120879727Y-111820540D01*
X120879723Y-111820535D01*
X120729464Y-111670276D01*
X120729459Y-111670272D01*
X120557557Y-111545379D01*
X120368217Y-111448904D01*
X120166129Y-111383242D01*
X119956246Y-111350000D01*
X119950000Y-111350000D01*
X119950000Y-112266988D01*
X119892993Y-112234075D01*
X119765826Y-112200000D01*
X119634174Y-112200000D01*
X119507007Y-112234075D01*
X119450000Y-112266988D01*
X119450000Y-111350000D01*
X119443754Y-111350000D01*
X119233872Y-111383242D01*
X119233869Y-111383242D01*
X119031782Y-111448904D01*
X118842442Y-111545379D01*
X118670540Y-111670272D01*
X118670535Y-111670276D01*
X118520276Y-111820535D01*
X118520272Y-111820540D01*
X118395379Y-111992442D01*
X118298904Y-112181782D01*
X118233242Y-112383870D01*
X118233242Y-112383873D01*
X118222769Y-112450000D01*
X119266988Y-112450000D01*
X119234075Y-112507007D01*
X119200000Y-112634174D01*
X119200000Y-112765826D01*
X119234075Y-112892993D01*
X119266988Y-112950000D01*
X118222769Y-112950000D01*
X118233242Y-113016126D01*
X118233242Y-113016129D01*
X118298904Y-113218217D01*
X118395379Y-113407557D01*
X118520272Y-113579459D01*
X118520276Y-113579464D01*
X118659143Y-113718331D01*
X118692628Y-113779654D01*
X118687644Y-113849346D01*
X118645772Y-113905279D01*
X118636559Y-113911551D01*
X118481342Y-114007289D01*
X118357289Y-114131342D01*
X118265187Y-114280663D01*
X118265186Y-114280666D01*
X118210001Y-114447203D01*
X118210001Y-114447204D01*
X118210000Y-114447204D01*
X118199500Y-114549983D01*
X115725000Y-114549983D01*
X115725000Y-103500000D01*
X112869685Y-103500000D01*
X112803037Y-123560912D01*
X112783130Y-123627886D01*
X112730174Y-123673465D01*
X112679038Y-123684500D01*
X100028983Y-123684500D01*
X99961944Y-123664815D01*
X99916189Y-123612011D01*
X99914438Y-123607991D01*
X99895815Y-123563031D01*
X99895811Y-123563025D01*
X99895811Y-123563023D01*
X99779446Y-123361475D01*
X99779442Y-123361468D01*
X99637756Y-123176819D01*
X99637751Y-123176813D01*
X99473186Y-123012248D01*
X99473179Y-123012242D01*
X99288540Y-122870564D01*
X99288538Y-122870562D01*
X99288532Y-122870558D01*
X99288527Y-122870555D01*
X99288524Y-122870553D01*
X99086976Y-122754188D01*
X99086960Y-122754180D01*
X98871947Y-122665120D01*
X98647122Y-122604878D01*
X98416382Y-122574501D01*
X98416377Y-122574500D01*
X98416372Y-122574500D01*
X98183628Y-122574500D01*
X98183622Y-122574500D01*
X98183617Y-122574501D01*
X97952877Y-122604878D01*
X97728052Y-122665120D01*
X97513039Y-122754180D01*
X97513023Y-122754188D01*
X97311475Y-122870553D01*
X97311459Y-122870564D01*
X97126820Y-123012242D01*
X97126813Y-123012248D01*
X96962248Y-123176813D01*
X96962242Y-123176820D01*
X96820564Y-123361459D01*
X96820553Y-123361475D01*
X96704188Y-123563023D01*
X96704180Y-123563039D01*
X96615120Y-123778052D01*
X96554878Y-124002877D01*
X96524501Y-124233617D01*
X96524500Y-124233634D01*
X96524500Y-124466365D01*
X96524501Y-124466382D01*
X96527293Y-124487593D01*
X96554879Y-124697126D01*
X96600376Y-124866924D01*
X96615120Y-124921947D01*
X96704180Y-125136960D01*
X96704188Y-125136976D01*
X96820553Y-125338524D01*
X96820564Y-125338540D01*
X96962242Y-125523179D01*
X96962248Y-125523186D01*
X97126813Y-125687751D01*
X97126819Y-125687756D01*
X97311468Y-125829442D01*
X97311475Y-125829446D01*
X97513023Y-125945811D01*
X97513039Y-125945819D01*
X97728052Y-126034879D01*
X97728054Y-126034879D01*
X97728060Y-126034882D01*
X97952874Y-126095121D01*
X98183628Y-126125500D01*
X98183635Y-126125500D01*
X98416365Y-126125500D01*
X98416372Y-126125500D01*
X98647126Y-126095121D01*
X98871940Y-126034882D01*
X98929953Y-126010852D01*
X99086960Y-125945819D01*
X99086963Y-125945817D01*
X99086969Y-125945815D01*
X99288532Y-125829442D01*
X99473181Y-125687756D01*
X99637756Y-125523181D01*
X99779442Y-125338532D01*
X99895815Y-125136969D01*
X99914422Y-125092045D01*
X99958262Y-125037645D01*
X100024556Y-125015579D01*
X100028983Y-125015500D01*
X112673792Y-125015500D01*
X112740831Y-125035185D01*
X112786586Y-125087989D01*
X112797791Y-125139912D01*
X112794446Y-126146724D01*
X112774539Y-126213698D01*
X112721583Y-126259277D01*
X112682603Y-126269715D01*
X112565129Y-126281286D01*
X112565114Y-126281289D01*
X112247097Y-126344545D01*
X112247086Y-126344548D01*
X111936752Y-126438686D01*
X111637150Y-126562786D01*
X111637145Y-126562788D01*
X111351169Y-126715646D01*
X111351151Y-126715657D01*
X111081532Y-126895811D01*
X111081518Y-126895821D01*
X110830841Y-127101546D01*
X110601546Y-127330841D01*
X110395821Y-127581518D01*
X110395811Y-127581532D01*
X110215657Y-127851151D01*
X110215646Y-127851169D01*
X110062788Y-128137145D01*
X110062786Y-128137150D01*
X109938686Y-128436752D01*
X109844548Y-128747086D01*
X109844545Y-128747097D01*
X109781287Y-129065125D01*
X109781284Y-129065142D01*
X109756666Y-129315099D01*
X109749500Y-129387857D01*
X109749500Y-129712143D01*
X109754316Y-129761040D01*
X109781284Y-130034857D01*
X109781287Y-130034874D01*
X109844545Y-130352902D01*
X109844548Y-130352913D01*
X109938686Y-130663247D01*
X110062786Y-130962849D01*
X110062788Y-130962854D01*
X110215646Y-131248830D01*
X110215657Y-131248848D01*
X110395811Y-131518467D01*
X110395821Y-131518481D01*
X110601546Y-131769158D01*
X110627790Y-131795402D01*
X110661275Y-131856725D01*
X110656291Y-131926417D01*
X110614419Y-131982350D01*
X110548955Y-132006767D01*
X110540502Y-132007082D01*
X98468460Y-132045349D01*
X98401359Y-132025877D01*
X98355436Y-131973219D01*
X98345274Y-131904092D01*
X98374097Y-131840445D01*
X98432755Y-131802484D01*
X98454183Y-131798130D01*
X98711024Y-131769190D01*
X98711040Y-131769188D01*
X98979315Y-131707957D01*
X98979327Y-131707953D01*
X99239045Y-131617073D01*
X99239059Y-131617067D01*
X99486975Y-131497677D01*
X99719976Y-131351273D01*
X99846678Y-131250230D01*
X99025922Y-130429475D01*
X99146893Y-130341585D01*
X99291585Y-130196893D01*
X99379475Y-130075922D01*
X100200230Y-130896678D01*
X100301273Y-130769976D01*
X100447677Y-130536975D01*
X100567067Y-130289059D01*
X100567073Y-130289045D01*
X100657953Y-130029327D01*
X100657957Y-130029315D01*
X100719188Y-129761040D01*
X100719190Y-129761024D01*
X100749999Y-129487593D01*
X100750000Y-129487593D01*
X100750000Y-129212407D01*
X100749999Y-129212406D01*
X100719190Y-128938975D01*
X100719188Y-128938959D01*
X100657957Y-128670684D01*
X100657953Y-128670672D01*
X100567073Y-128410954D01*
X100567067Y-128410940D01*
X100447677Y-128163024D01*
X100301272Y-127930023D01*
X100200231Y-127803320D01*
X99379474Y-128624076D01*
X99291585Y-128503107D01*
X99146893Y-128358415D01*
X99025921Y-128270523D01*
X99846678Y-127449767D01*
X99719976Y-127348727D01*
X99486975Y-127202322D01*
X99239059Y-127082932D01*
X99239045Y-127082926D01*
X98979327Y-126992046D01*
X98979315Y-126992042D01*
X98711040Y-126930811D01*
X98711024Y-126930809D01*
X98437593Y-126900000D01*
X98162407Y-126900000D01*
X97888975Y-126930809D01*
X97888959Y-126930811D01*
X97620684Y-126992042D01*
X97620672Y-126992046D01*
X97360954Y-127082926D01*
X97360940Y-127082932D01*
X97113024Y-127202322D01*
X96880029Y-127348723D01*
X96753321Y-127449768D01*
X97574077Y-128270524D01*
X97453107Y-128358415D01*
X97308415Y-128503107D01*
X97220524Y-128624077D01*
X96399768Y-127803321D01*
X96298723Y-127930029D01*
X96152322Y-128163024D01*
X96032932Y-128410940D01*
X96032926Y-128410954D01*
X95942046Y-128670672D01*
X95942042Y-128670684D01*
X95880811Y-128938959D01*
X95880809Y-128938975D01*
X95850000Y-129212406D01*
X95850000Y-129487593D01*
X95880809Y-129761024D01*
X95880811Y-129761040D01*
X95942042Y-130029315D01*
X95942046Y-130029327D01*
X96032926Y-130289045D01*
X96032932Y-130289059D01*
X96152322Y-130536975D01*
X96298727Y-130769976D01*
X96399767Y-130896678D01*
X97220523Y-130075921D01*
X97308415Y-130196893D01*
X97453107Y-130341585D01*
X97574077Y-130429475D01*
X96753320Y-131250231D01*
X96880023Y-131351272D01*
X97113024Y-131497677D01*
X97360940Y-131617067D01*
X97360954Y-131617073D01*
X97620672Y-131707953D01*
X97620684Y-131707957D01*
X97888959Y-131769188D01*
X97888975Y-131769190D01*
X98155014Y-131799167D01*
X98219428Y-131826234D01*
X98258983Y-131883829D01*
X98261120Y-131953666D01*
X98225162Y-132013572D01*
X98162524Y-132044528D01*
X98141523Y-132046386D01*
X91599297Y-132067123D01*
X91532196Y-132047651D01*
X91486273Y-131994993D01*
X91474904Y-131943219D01*
X91474870Y-131899541D01*
X91470082Y-125677445D01*
X91489714Y-125610394D01*
X91542483Y-125564598D01*
X91611633Y-125554602D01*
X91675212Y-125583578D01*
X91699075Y-125611381D01*
X91798727Y-125769976D01*
X91899767Y-125896678D01*
X92720523Y-125075921D01*
X92808415Y-125196893D01*
X92953107Y-125341585D01*
X93074077Y-125429475D01*
X92253320Y-126250231D01*
X92380023Y-126351272D01*
X92613024Y-126497677D01*
X92860940Y-126617067D01*
X92860954Y-126617073D01*
X93120672Y-126707953D01*
X93120684Y-126707957D01*
X93388959Y-126769188D01*
X93388975Y-126769190D01*
X93662406Y-126799999D01*
X93662407Y-126800000D01*
X93937593Y-126800000D01*
X93937593Y-126799999D01*
X94211024Y-126769190D01*
X94211040Y-126769188D01*
X94479315Y-126707957D01*
X94479327Y-126707953D01*
X94739045Y-126617073D01*
X94739059Y-126617067D01*
X94986975Y-126497677D01*
X95219976Y-126351273D01*
X95346678Y-126250230D01*
X94525922Y-125429475D01*
X94646893Y-125341585D01*
X94791585Y-125196893D01*
X94879475Y-125075922D01*
X95700230Y-125896678D01*
X95801273Y-125769976D01*
X95947677Y-125536975D01*
X96067067Y-125289059D01*
X96067073Y-125289045D01*
X96157953Y-125029327D01*
X96157957Y-125029315D01*
X96219188Y-124761040D01*
X96219190Y-124761024D01*
X96249999Y-124487593D01*
X96250000Y-124487593D01*
X96250000Y-124212407D01*
X96249999Y-124212406D01*
X96219190Y-123938975D01*
X96219188Y-123938959D01*
X96157957Y-123670684D01*
X96157953Y-123670672D01*
X96067073Y-123410954D01*
X96067067Y-123410940D01*
X95947677Y-123163024D01*
X95801272Y-122930023D01*
X95700231Y-122803320D01*
X94879474Y-123624076D01*
X94791585Y-123503107D01*
X94646893Y-123358415D01*
X94525921Y-123270523D01*
X95346678Y-122449767D01*
X95219976Y-122348727D01*
X94986975Y-122202322D01*
X94739059Y-122082932D01*
X94739045Y-122082926D01*
X94479327Y-121992046D01*
X94479315Y-121992042D01*
X94211040Y-121930811D01*
X94211024Y-121930809D01*
X93937593Y-121900000D01*
X93662407Y-121900000D01*
X93388975Y-121930809D01*
X93388959Y-121930811D01*
X93120684Y-121992042D01*
X93120672Y-121992046D01*
X92860954Y-122082926D01*
X92860940Y-122082932D01*
X92613024Y-122202322D01*
X92380029Y-122348723D01*
X92253321Y-122449768D01*
X93074077Y-123270524D01*
X92953107Y-123358415D01*
X92808415Y-123503107D01*
X92720524Y-123624077D01*
X91899768Y-122803321D01*
X91798721Y-122930031D01*
X91697033Y-123091866D01*
X91644699Y-123138156D01*
X91575645Y-123148804D01*
X91511797Y-123120429D01*
X91473425Y-123062039D01*
X91468041Y-123025998D01*
X91465106Y-119212406D01*
X95850000Y-119212406D01*
X95850000Y-119487593D01*
X95880809Y-119761024D01*
X95880811Y-119761040D01*
X95942042Y-120029315D01*
X95942046Y-120029327D01*
X96032926Y-120289045D01*
X96032932Y-120289059D01*
X96152322Y-120536975D01*
X96298727Y-120769976D01*
X96399767Y-120896678D01*
X97220523Y-120075921D01*
X97308415Y-120196893D01*
X97453107Y-120341585D01*
X97574077Y-120429475D01*
X96753320Y-121250231D01*
X96880023Y-121351272D01*
X97113024Y-121497677D01*
X97360940Y-121617067D01*
X97360954Y-121617073D01*
X97620672Y-121707953D01*
X97620684Y-121707957D01*
X97888959Y-121769188D01*
X97888975Y-121769190D01*
X98162406Y-121799999D01*
X98162407Y-121800000D01*
X98437593Y-121800000D01*
X98437593Y-121799999D01*
X98711024Y-121769190D01*
X98711040Y-121769188D01*
X98979315Y-121707957D01*
X98979327Y-121707953D01*
X99239045Y-121617073D01*
X99239059Y-121617067D01*
X99486975Y-121497677D01*
X99719976Y-121351273D01*
X99846678Y-121250230D01*
X99025922Y-120429475D01*
X99146893Y-120341585D01*
X99291585Y-120196893D01*
X99379475Y-120075922D01*
X100200230Y-120896678D01*
X100301273Y-120769976D01*
X100447677Y-120536975D01*
X100567067Y-120289059D01*
X100567073Y-120289045D01*
X100657953Y-120029327D01*
X100657957Y-120029315D01*
X100719188Y-119761040D01*
X100719190Y-119761024D01*
X100749999Y-119487593D01*
X100750000Y-119487593D01*
X100750000Y-119212407D01*
X100749999Y-119212406D01*
X100719190Y-118938975D01*
X100719188Y-118938959D01*
X100657957Y-118670684D01*
X100657953Y-118670672D01*
X100567073Y-118410954D01*
X100567067Y-118410940D01*
X100447677Y-118163024D01*
X100301272Y-117930023D01*
X100200231Y-117803320D01*
X99379474Y-118624076D01*
X99291585Y-118503107D01*
X99146893Y-118358415D01*
X99025921Y-118270523D01*
X99846678Y-117449767D01*
X99719976Y-117348727D01*
X99486975Y-117202322D01*
X99239059Y-117082932D01*
X99239045Y-117082926D01*
X98979327Y-116992046D01*
X98979315Y-116992042D01*
X98711040Y-116930811D01*
X98711024Y-116930809D01*
X98437593Y-116900000D01*
X98162407Y-116900000D01*
X97888975Y-116930809D01*
X97888959Y-116930811D01*
X97620684Y-116992042D01*
X97620672Y-116992046D01*
X97360954Y-117082926D01*
X97360940Y-117082932D01*
X97113024Y-117202322D01*
X96880029Y-117348723D01*
X96753321Y-117449768D01*
X97574077Y-118270524D01*
X97453107Y-118358415D01*
X97308415Y-118503107D01*
X97220524Y-118624077D01*
X96399768Y-117803321D01*
X96298723Y-117930029D01*
X96152322Y-118163024D01*
X96032932Y-118410940D01*
X96032926Y-118410954D01*
X95942046Y-118670672D01*
X95942042Y-118670684D01*
X95880811Y-118938959D01*
X95880809Y-118938975D01*
X95850000Y-119212406D01*
X91465106Y-119212406D01*
X91451407Y-101412406D01*
X95825000Y-101412406D01*
X95825000Y-101687593D01*
X95855809Y-101961024D01*
X95855811Y-101961040D01*
X95917042Y-102229315D01*
X95917046Y-102229327D01*
X96007926Y-102489045D01*
X96007932Y-102489059D01*
X96127322Y-102736975D01*
X96273727Y-102969976D01*
X96374767Y-103096678D01*
X97195523Y-102275921D01*
X97283415Y-102396893D01*
X97428107Y-102541585D01*
X97549077Y-102629475D01*
X96728320Y-103450231D01*
X96855023Y-103551272D01*
X97088024Y-103697677D01*
X97335940Y-103817067D01*
X97335954Y-103817073D01*
X97595672Y-103907953D01*
X97595684Y-103907957D01*
X97863959Y-103969188D01*
X97863975Y-103969190D01*
X98137406Y-103999999D01*
X98137407Y-104000000D01*
X98412593Y-104000000D01*
X98412593Y-103999999D01*
X98686024Y-103969190D01*
X98686040Y-103969188D01*
X98954315Y-103907957D01*
X98954327Y-103907953D01*
X99214045Y-103817073D01*
X99214059Y-103817067D01*
X99461975Y-103697677D01*
X99694976Y-103551273D01*
X99821678Y-103450230D01*
X99000922Y-102629475D01*
X99121893Y-102541585D01*
X99266585Y-102396893D01*
X99354475Y-102275922D01*
X100175230Y-103096678D01*
X100276273Y-102969976D01*
X100312131Y-102912909D01*
X100422677Y-102736975D01*
X100542067Y-102489059D01*
X100542073Y-102489045D01*
X100632953Y-102229327D01*
X100632957Y-102229315D01*
X100694188Y-101961040D01*
X100694190Y-101961024D01*
X100724999Y-101687593D01*
X100725000Y-101687593D01*
X100725000Y-101412407D01*
X100724999Y-101412406D01*
X100694190Y-101138975D01*
X100694188Y-101138959D01*
X100632957Y-100870684D01*
X100632953Y-100870672D01*
X100542073Y-100610954D01*
X100542064Y-100610932D01*
X100485099Y-100492642D01*
X100461536Y-100443713D01*
X125294500Y-100443713D01*
X125294500Y-100656286D01*
X125321451Y-100826451D01*
X125327754Y-100866243D01*
X125392479Y-101065446D01*
X125393444Y-101068414D01*
X125489951Y-101257820D01*
X125614890Y-101429786D01*
X125765213Y-101580109D01*
X125937179Y-101705048D01*
X125937181Y-101705049D01*
X125937184Y-101705051D01*
X125946493Y-101709794D01*
X125997290Y-101757766D01*
X126014087Y-101825587D01*
X125991552Y-101891722D01*
X125946505Y-101930760D01*
X125937446Y-101935376D01*
X125937440Y-101935380D01*
X125883282Y-101974727D01*
X125883282Y-101974728D01*
X126515591Y-102607037D01*
X126452007Y-102624075D01*
X126337993Y-102689901D01*
X126244901Y-102782993D01*
X126179075Y-102897007D01*
X126162037Y-102960591D01*
X125529728Y-102328282D01*
X125529727Y-102328282D01*
X125490380Y-102382439D01*
X125393904Y-102571782D01*
X125328242Y-102773869D01*
X125328242Y-102773872D01*
X125295000Y-102983753D01*
X125295000Y-103196246D01*
X125328242Y-103406127D01*
X125328242Y-103406130D01*
X125393904Y-103608217D01*
X125490375Y-103797550D01*
X125529728Y-103851716D01*
X126162037Y-103219408D01*
X126179075Y-103282993D01*
X126244901Y-103397007D01*
X126337993Y-103490099D01*
X126452007Y-103555925D01*
X126515590Y-103572962D01*
X125883282Y-104205269D01*
X125883282Y-104205270D01*
X125937449Y-104244624D01*
X126126782Y-104341095D01*
X126328870Y-104406757D01*
X126538754Y-104440000D01*
X126751246Y-104440000D01*
X126961127Y-104406757D01*
X126961130Y-104406757D01*
X127163217Y-104341095D01*
X127352554Y-104244622D01*
X127406716Y-104205270D01*
X127406717Y-104205270D01*
X126774408Y-103572962D01*
X126837993Y-103555925D01*
X126952007Y-103490099D01*
X127045099Y-103397007D01*
X127110925Y-103282993D01*
X127127962Y-103219408D01*
X127760270Y-103851717D01*
X127760270Y-103851716D01*
X127799622Y-103797555D01*
X127804232Y-103788507D01*
X127852205Y-103737709D01*
X127920025Y-103720912D01*
X127986161Y-103743447D01*
X128025204Y-103788504D01*
X128029949Y-103797817D01*
X128154890Y-103969786D01*
X128305213Y-104120109D01*
X128477179Y-104245048D01*
X128477181Y-104245049D01*
X128477184Y-104245051D01*
X128666588Y-104341557D01*
X128868757Y-104407246D01*
X129078713Y-104440500D01*
X129078714Y-104440500D01*
X129291286Y-104440500D01*
X129291287Y-104440500D01*
X129501243Y-104407246D01*
X129703412Y-104341557D01*
X129892816Y-104245051D01*
X129947572Y-104205269D01*
X130064786Y-104120109D01*
X130064788Y-104120106D01*
X130064792Y-104120104D01*
X130215104Y-103969792D01*
X130215106Y-103969788D01*
X130215109Y-103969786D01*
X130340048Y-103797820D01*
X130340050Y-103797817D01*
X130340051Y-103797816D01*
X130344514Y-103789054D01*
X130392488Y-103738259D01*
X130460308Y-103721463D01*
X130526444Y-103743999D01*
X130565486Y-103789056D01*
X130569951Y-103797820D01*
X130694890Y-103969786D01*
X130845213Y-104120109D01*
X131017179Y-104245048D01*
X131017181Y-104245049D01*
X131017184Y-104245051D01*
X131206588Y-104341557D01*
X131408757Y-104407246D01*
X131618713Y-104440500D01*
X131618714Y-104440500D01*
X131831286Y-104440500D01*
X131831287Y-104440500D01*
X132041243Y-104407246D01*
X132243412Y-104341557D01*
X132432816Y-104245051D01*
X132487572Y-104205269D01*
X132604786Y-104120109D01*
X132604788Y-104120106D01*
X132604792Y-104120104D01*
X132755104Y-103969792D01*
X132755106Y-103969788D01*
X132755109Y-103969786D01*
X132880048Y-103797820D01*
X132880050Y-103797817D01*
X132880051Y-103797816D01*
X132976557Y-103608412D01*
X133042246Y-103406243D01*
X133075500Y-103196287D01*
X133075500Y-102983713D01*
X133042246Y-102773757D01*
X132976557Y-102571588D01*
X132880051Y-102382184D01*
X132880049Y-102382181D01*
X132880048Y-102382179D01*
X132755109Y-102210213D01*
X132604790Y-102059894D01*
X132604785Y-102059890D01*
X132599891Y-102056334D01*
X132557227Y-102001003D01*
X132551249Y-101931390D01*
X132583857Y-101869595D01*
X132633774Y-101838312D01*
X132644334Y-101834814D01*
X132793656Y-101742712D01*
X132917712Y-101618656D01*
X133009814Y-101469334D01*
X133064999Y-101302797D01*
X133075500Y-101200009D01*
X133075499Y-99899992D01*
X133073483Y-99880261D01*
X133064999Y-99797203D01*
X133064998Y-99797200D01*
X133009814Y-99630666D01*
X132917712Y-99481344D01*
X132793656Y-99357288D01*
X132644334Y-99265186D01*
X132477797Y-99210001D01*
X132477795Y-99210000D01*
X132375010Y-99199500D01*
X131074998Y-99199500D01*
X131074981Y-99199501D01*
X130972203Y-99210000D01*
X130972200Y-99210001D01*
X130805668Y-99265185D01*
X130805663Y-99265187D01*
X130656342Y-99357289D01*
X130532289Y-99481342D01*
X130440187Y-99630663D01*
X130440183Y-99630673D01*
X130436685Y-99641229D01*
X130396910Y-99698672D01*
X130332393Y-99725493D01*
X130263618Y-99713174D01*
X130218663Y-99675106D01*
X130215105Y-99670209D01*
X130064786Y-99519890D01*
X129892820Y-99394951D01*
X129703414Y-99298444D01*
X129703413Y-99298443D01*
X129703412Y-99298443D01*
X129501243Y-99232754D01*
X129501241Y-99232753D01*
X129501240Y-99232753D01*
X129339957Y-99207208D01*
X129291287Y-99199500D01*
X129078713Y-99199500D01*
X129030042Y-99207208D01*
X128868760Y-99232753D01*
X128666585Y-99298444D01*
X128477179Y-99394951D01*
X128305213Y-99519890D01*
X128154890Y-99670213D01*
X128029949Y-99842182D01*
X128025484Y-99850946D01*
X127977509Y-99901742D01*
X127909688Y-99918536D01*
X127843553Y-99895998D01*
X127804516Y-99850946D01*
X127800050Y-99842182D01*
X127675109Y-99670213D01*
X127524786Y-99519890D01*
X127352820Y-99394951D01*
X127163414Y-99298444D01*
X127163413Y-99298443D01*
X127163412Y-99298443D01*
X126961243Y-99232754D01*
X126961241Y-99232753D01*
X126961240Y-99232753D01*
X126799957Y-99207208D01*
X126751287Y-99199500D01*
X126538713Y-99199500D01*
X126490042Y-99207208D01*
X126328760Y-99232753D01*
X126126585Y-99298444D01*
X125937179Y-99394951D01*
X125765213Y-99519890D01*
X125614890Y-99670213D01*
X125489951Y-99842179D01*
X125393444Y-100031585D01*
X125327753Y-100233760D01*
X125294500Y-100443713D01*
X100461536Y-100443713D01*
X100422677Y-100363024D01*
X100276272Y-100130023D01*
X100175231Y-100003320D01*
X99354474Y-100824076D01*
X99266585Y-100703107D01*
X99121893Y-100558415D01*
X99000921Y-100470523D01*
X99821678Y-99649767D01*
X99694976Y-99548727D01*
X99461975Y-99402322D01*
X99214059Y-99282932D01*
X99214045Y-99282926D01*
X98954327Y-99192046D01*
X98954315Y-99192042D01*
X98686040Y-99130811D01*
X98686024Y-99130809D01*
X98412593Y-99100000D01*
X98137407Y-99100000D01*
X97863975Y-99130809D01*
X97863959Y-99130811D01*
X97595684Y-99192042D01*
X97595672Y-99192046D01*
X97335954Y-99282926D01*
X97335940Y-99282932D01*
X97088024Y-99402322D01*
X96855029Y-99548723D01*
X96728321Y-99649768D01*
X97549077Y-100470524D01*
X97428107Y-100558415D01*
X97283415Y-100703107D01*
X97195524Y-100824077D01*
X96374768Y-100003321D01*
X96273723Y-100130029D01*
X96127322Y-100363024D01*
X96007932Y-100610940D01*
X96007926Y-100610954D01*
X95917046Y-100870672D01*
X95917042Y-100870684D01*
X95855811Y-101138959D01*
X95855809Y-101138975D01*
X95825000Y-101412406D01*
X91451407Y-101412406D01*
X91448691Y-97883188D01*
X91468323Y-97816139D01*
X91521092Y-97770343D01*
X91590243Y-97760347D01*
X91653821Y-97789323D01*
X91677684Y-97817126D01*
X91773727Y-97969976D01*
X91874767Y-98096678D01*
X92695523Y-97275921D01*
X92783415Y-97396893D01*
X92928107Y-97541585D01*
X93049077Y-97629475D01*
X92228320Y-98450231D01*
X92355023Y-98551272D01*
X92588024Y-98697677D01*
X92835940Y-98817067D01*
X92835954Y-98817073D01*
X93095672Y-98907953D01*
X93095684Y-98907957D01*
X93363959Y-98969188D01*
X93363975Y-98969190D01*
X93637406Y-98999999D01*
X93637407Y-99000000D01*
X93912593Y-99000000D01*
X93912593Y-98999999D01*
X94186024Y-98969190D01*
X94186040Y-98969188D01*
X94454315Y-98907957D01*
X94454327Y-98907953D01*
X94714045Y-98817073D01*
X94714059Y-98817067D01*
X94961975Y-98697677D01*
X95194976Y-98551273D01*
X95321678Y-98450230D01*
X94500922Y-97629475D01*
X94621893Y-97541585D01*
X94766585Y-97396893D01*
X94854475Y-97275922D01*
X95675230Y-98096678D01*
X95776273Y-97969976D01*
X95922677Y-97736975D01*
X96042067Y-97489059D01*
X96042073Y-97489045D01*
X96132953Y-97229327D01*
X96132957Y-97229315D01*
X96194188Y-96961040D01*
X96194190Y-96961024D01*
X96224999Y-96687593D01*
X96225000Y-96687593D01*
X96225000Y-96433634D01*
X96499500Y-96433634D01*
X96499500Y-96666365D01*
X96499501Y-96666382D01*
X96522540Y-96841385D01*
X96529879Y-96897126D01*
X96547000Y-96961024D01*
X96590120Y-97121947D01*
X96679180Y-97336960D01*
X96679188Y-97336976D01*
X96795553Y-97538524D01*
X96795564Y-97538540D01*
X96937242Y-97723179D01*
X96937248Y-97723186D01*
X97101813Y-97887751D01*
X97101819Y-97887756D01*
X97286468Y-98029442D01*
X97286475Y-98029446D01*
X97488023Y-98145811D01*
X97488039Y-98145819D01*
X97703052Y-98234879D01*
X97703054Y-98234879D01*
X97703060Y-98234882D01*
X97927874Y-98295121D01*
X98158628Y-98325500D01*
X98158635Y-98325500D01*
X98391365Y-98325500D01*
X98391372Y-98325500D01*
X98622126Y-98295121D01*
X98846940Y-98234882D01*
X98904953Y-98210852D01*
X99061960Y-98145819D01*
X99061963Y-98145817D01*
X99061969Y-98145815D01*
X99263532Y-98029442D01*
X99448181Y-97887756D01*
X99612756Y-97723181D01*
X99754442Y-97538532D01*
X99870815Y-97336969D01*
X99886372Y-97299412D01*
X99959879Y-97121947D01*
X99959878Y-97121947D01*
X99959882Y-97121940D01*
X100020121Y-96897126D01*
X100030123Y-96821153D01*
X125174500Y-96821153D01*
X125174500Y-96978846D01*
X125205261Y-97133489D01*
X125205264Y-97133501D01*
X125265602Y-97279172D01*
X125265609Y-97279185D01*
X125353210Y-97410288D01*
X125353213Y-97410292D01*
X125464707Y-97521786D01*
X125464711Y-97521789D01*
X125595814Y-97609390D01*
X125595827Y-97609397D01*
X125722486Y-97661860D01*
X125741503Y-97669737D01*
X125896153Y-97700499D01*
X125896156Y-97700500D01*
X125896158Y-97700500D01*
X126053844Y-97700500D01*
X126053845Y-97700499D01*
X126208497Y-97669737D01*
X126354179Y-97609394D01*
X126354185Y-97609390D01*
X126485875Y-97521398D01*
X126552553Y-97500520D01*
X126554766Y-97500500D01*
X127492059Y-97500500D01*
X127559098Y-97520185D01*
X127579740Y-97536819D01*
X127584934Y-97542013D01*
X127584938Y-97542016D01*
X127716041Y-97629617D01*
X127716054Y-97629624D01*
X127861725Y-97689962D01*
X127861730Y-97689964D01*
X128016380Y-97720726D01*
X128016383Y-97720727D01*
X128016385Y-97720727D01*
X128174071Y-97720727D01*
X128174072Y-97720726D01*
X128328724Y-97689964D01*
X128474406Y-97629621D01*
X128605516Y-97542016D01*
X128717016Y-97430516D01*
X128804621Y-97299406D01*
X128864964Y-97153724D01*
X128895727Y-96999069D01*
X128895727Y-96841385D01*
X128895727Y-96841382D01*
X128895726Y-96841380D01*
X128887272Y-96798881D01*
X128864964Y-96686730D01*
X128808329Y-96549999D01*
X128804624Y-96541054D01*
X128804617Y-96541041D01*
X128717016Y-96409938D01*
X128717013Y-96409934D01*
X128605519Y-96298440D01*
X128605515Y-96298437D01*
X128474412Y-96210836D01*
X128474399Y-96210829D01*
X128328728Y-96150491D01*
X128328716Y-96150488D01*
X128174072Y-96119727D01*
X128174069Y-96119727D01*
X128016385Y-96119727D01*
X128016382Y-96119727D01*
X127861737Y-96150488D01*
X127861725Y-96150491D01*
X127716054Y-96210829D01*
X127716041Y-96210836D01*
X127614624Y-96278602D01*
X127547947Y-96299480D01*
X127545733Y-96299500D01*
X126554766Y-96299500D01*
X126487727Y-96279815D01*
X126485875Y-96278602D01*
X126354185Y-96190609D01*
X126354172Y-96190602D01*
X126208501Y-96130264D01*
X126208489Y-96130261D01*
X126053845Y-96099500D01*
X126053842Y-96099500D01*
X125896158Y-96099500D01*
X125896155Y-96099500D01*
X125741510Y-96130261D01*
X125741498Y-96130264D01*
X125595827Y-96190602D01*
X125595814Y-96190609D01*
X125464711Y-96278210D01*
X125464707Y-96278213D01*
X125353213Y-96389707D01*
X125353210Y-96389711D01*
X125265609Y-96520814D01*
X125265602Y-96520827D01*
X125205264Y-96666498D01*
X125205261Y-96666510D01*
X125174500Y-96821153D01*
X100030123Y-96821153D01*
X100050500Y-96666372D01*
X100050500Y-96433628D01*
X100020121Y-96202874D01*
X99959882Y-95978060D01*
X99956434Y-95969735D01*
X99870819Y-95763039D01*
X99870811Y-95763023D01*
X99754446Y-95561475D01*
X99754442Y-95561468D01*
X99656247Y-95433497D01*
X99612757Y-95376820D01*
X99612751Y-95376813D01*
X99448186Y-95212248D01*
X99448179Y-95212242D01*
X99263540Y-95070564D01*
X99263538Y-95070562D01*
X99263532Y-95070558D01*
X99263527Y-95070555D01*
X99263524Y-95070553D01*
X99061976Y-94954188D01*
X99061960Y-94954180D01*
X98846947Y-94865120D01*
X98656602Y-94814117D01*
X98622126Y-94804879D01*
X98622125Y-94804878D01*
X98622122Y-94804878D01*
X98391382Y-94774501D01*
X98391377Y-94774500D01*
X98391372Y-94774500D01*
X98158628Y-94774500D01*
X98158622Y-94774500D01*
X98158617Y-94774501D01*
X97927877Y-94804878D01*
X97703052Y-94865120D01*
X97488039Y-94954180D01*
X97488023Y-94954188D01*
X97286475Y-95070553D01*
X97286459Y-95070564D01*
X97101820Y-95212242D01*
X97101813Y-95212248D01*
X96937248Y-95376813D01*
X96937242Y-95376820D01*
X96795564Y-95561459D01*
X96795553Y-95561475D01*
X96679188Y-95763023D01*
X96679180Y-95763039D01*
X96590120Y-95978052D01*
X96529878Y-96202877D01*
X96499501Y-96433617D01*
X96499500Y-96433634D01*
X96225000Y-96433634D01*
X96225000Y-96412407D01*
X96224999Y-96412406D01*
X96194190Y-96138975D01*
X96194188Y-96138959D01*
X96132957Y-95870684D01*
X96132953Y-95870672D01*
X96042073Y-95610954D01*
X96042067Y-95610940D01*
X95922677Y-95363024D01*
X95776272Y-95130023D01*
X95675231Y-95003320D01*
X94854474Y-95824076D01*
X94766585Y-95703107D01*
X94621893Y-95558415D01*
X94500921Y-95470523D01*
X95321678Y-94649767D01*
X95194976Y-94548727D01*
X94961975Y-94402322D01*
X94714059Y-94282932D01*
X94714045Y-94282926D01*
X94454327Y-94192046D01*
X94454315Y-94192042D01*
X94186040Y-94130811D01*
X94186024Y-94130809D01*
X93912593Y-94100000D01*
X93637407Y-94100000D01*
X93363975Y-94130809D01*
X93363959Y-94130811D01*
X93095684Y-94192042D01*
X93095672Y-94192046D01*
X92835954Y-94282926D01*
X92835940Y-94282932D01*
X92588024Y-94402322D01*
X92355029Y-94548723D01*
X92228321Y-94649768D01*
X93049077Y-95470524D01*
X92928107Y-95558415D01*
X92783415Y-95703107D01*
X92695524Y-95824077D01*
X91874768Y-95003321D01*
X91773721Y-95130031D01*
X91675634Y-95286135D01*
X91623300Y-95332425D01*
X91554246Y-95343073D01*
X91490398Y-95314698D01*
X91452026Y-95256308D01*
X91446641Y-95220263D01*
X91443710Y-91412406D01*
X95825000Y-91412406D01*
X95825000Y-91687593D01*
X95855809Y-91961024D01*
X95855811Y-91961040D01*
X95917042Y-92229315D01*
X95917046Y-92229327D01*
X96007924Y-92489039D01*
X96007932Y-92489059D01*
X96127322Y-92736975D01*
X96273727Y-92969976D01*
X96374767Y-93096678D01*
X97195523Y-92275921D01*
X97283415Y-92396893D01*
X97428107Y-92541585D01*
X97549077Y-92629475D01*
X96728320Y-93450231D01*
X96855023Y-93551272D01*
X97088024Y-93697677D01*
X97335940Y-93817067D01*
X97335954Y-93817073D01*
X97595672Y-93907953D01*
X97595684Y-93907957D01*
X97863959Y-93969188D01*
X97863975Y-93969190D01*
X98137406Y-93999999D01*
X98137407Y-94000000D01*
X98412593Y-94000000D01*
X98412593Y-93999999D01*
X98686024Y-93969190D01*
X98686040Y-93969188D01*
X98954315Y-93907957D01*
X98954327Y-93907953D01*
X99214045Y-93817073D01*
X99214059Y-93817067D01*
X99461975Y-93697677D01*
X99694976Y-93551273D01*
X99821678Y-93450230D01*
X99000922Y-92629475D01*
X99121893Y-92541585D01*
X99266585Y-92396893D01*
X99354475Y-92275922D01*
X100175230Y-93096678D01*
X100276273Y-92969976D01*
X100422677Y-92736975D01*
X100542067Y-92489059D01*
X100542076Y-92489039D01*
X100632953Y-92229327D01*
X100632957Y-92229315D01*
X100694188Y-91961040D01*
X100694190Y-91961024D01*
X100724999Y-91687593D01*
X100725000Y-91687593D01*
X100725000Y-91412407D01*
X100724999Y-91412406D01*
X100694190Y-91138975D01*
X100694188Y-91138959D01*
X100632957Y-90870684D01*
X100632953Y-90870672D01*
X100542073Y-90610954D01*
X100542067Y-90610940D01*
X100422677Y-90363024D01*
X100276272Y-90130023D01*
X100175231Y-90003320D01*
X99354474Y-90824076D01*
X99266585Y-90703107D01*
X99121893Y-90558415D01*
X99000921Y-90470523D01*
X99821678Y-89649767D01*
X99694976Y-89548727D01*
X99461975Y-89402322D01*
X99214059Y-89282932D01*
X99214045Y-89282926D01*
X98954327Y-89192046D01*
X98954315Y-89192042D01*
X98686040Y-89130811D01*
X98686024Y-89130809D01*
X98412593Y-89100000D01*
X98137407Y-89100000D01*
X97863975Y-89130809D01*
X97863959Y-89130811D01*
X97595684Y-89192042D01*
X97595672Y-89192046D01*
X97335954Y-89282926D01*
X97335940Y-89282932D01*
X97088024Y-89402322D01*
X96855029Y-89548723D01*
X96728321Y-89649768D01*
X97549077Y-90470524D01*
X97428107Y-90558415D01*
X97283415Y-90703107D01*
X97195524Y-90824077D01*
X96374768Y-90003321D01*
X96273723Y-90130029D01*
X96127322Y-90363024D01*
X96007932Y-90610940D01*
X96007926Y-90610954D01*
X95917046Y-90870672D01*
X95917042Y-90870684D01*
X95855811Y-91138959D01*
X95855809Y-91138975D01*
X95825000Y-91412406D01*
X91443710Y-91412406D01*
X91434860Y-79912406D01*
X95775000Y-79912406D01*
X95775000Y-80187593D01*
X95805809Y-80461024D01*
X95805811Y-80461040D01*
X95867042Y-80729315D01*
X95867046Y-80729327D01*
X95957926Y-80989045D01*
X95957932Y-80989059D01*
X96077322Y-81236975D01*
X96223727Y-81469976D01*
X96324767Y-81596678D01*
X97145523Y-80775921D01*
X97233415Y-80896893D01*
X97378107Y-81041585D01*
X97499077Y-81129475D01*
X96678320Y-81950231D01*
X96805023Y-82051272D01*
X97038024Y-82197677D01*
X97285940Y-82317067D01*
X97285954Y-82317073D01*
X97545672Y-82407953D01*
X97545684Y-82407957D01*
X97813959Y-82469188D01*
X97813975Y-82469190D01*
X98087406Y-82499999D01*
X98087407Y-82500000D01*
X98362593Y-82500000D01*
X98362593Y-82499999D01*
X98636024Y-82469190D01*
X98636040Y-82469188D01*
X98904315Y-82407957D01*
X98904327Y-82407953D01*
X99164045Y-82317073D01*
X99164059Y-82317067D01*
X99411975Y-82197677D01*
X99644976Y-82051273D01*
X99771678Y-81950230D01*
X98950922Y-81129475D01*
X99071893Y-81041585D01*
X99216585Y-80896893D01*
X99304475Y-80775922D01*
X100125230Y-81596678D01*
X100226273Y-81469976D01*
X100372677Y-81236975D01*
X100492067Y-80989059D01*
X100492073Y-80989045D01*
X100582953Y-80729327D01*
X100582957Y-80729315D01*
X100644188Y-80461040D01*
X100644190Y-80461024D01*
X100674999Y-80187593D01*
X100675000Y-80187593D01*
X100675000Y-79912407D01*
X100674999Y-79912406D01*
X100644190Y-79638975D01*
X100644188Y-79638959D01*
X100582957Y-79370684D01*
X100582953Y-79370672D01*
X100492073Y-79110954D01*
X100492067Y-79110940D01*
X100372677Y-78863024D01*
X100226272Y-78630023D01*
X100125231Y-78503320D01*
X99304474Y-79324076D01*
X99216585Y-79203107D01*
X99071893Y-79058415D01*
X98950921Y-78970523D01*
X99771678Y-78149767D01*
X99644976Y-78048727D01*
X99411975Y-77902322D01*
X99164059Y-77782932D01*
X99164045Y-77782926D01*
X98904327Y-77692046D01*
X98904315Y-77692042D01*
X98636040Y-77630811D01*
X98636024Y-77630809D01*
X98362593Y-77600000D01*
X98087407Y-77600000D01*
X97813975Y-77630809D01*
X97813959Y-77630811D01*
X97545684Y-77692042D01*
X97545672Y-77692046D01*
X97285954Y-77782926D01*
X97285940Y-77782932D01*
X97038024Y-77902322D01*
X96805029Y-78048723D01*
X96678321Y-78149768D01*
X97499077Y-78970524D01*
X97378107Y-79058415D01*
X97233415Y-79203107D01*
X97145524Y-79324077D01*
X96324768Y-78503321D01*
X96223723Y-78630029D01*
X96077322Y-78863024D01*
X95957932Y-79110940D01*
X95957926Y-79110954D01*
X95867046Y-79370672D01*
X95867042Y-79370684D01*
X95805811Y-79638959D01*
X95805809Y-79638975D01*
X95775000Y-79912406D01*
X91434860Y-79912406D01*
X91432185Y-76436492D01*
X91451817Y-76369444D01*
X91504586Y-76323648D01*
X91573737Y-76313652D01*
X91637315Y-76342628D01*
X91661178Y-76370431D01*
X91723727Y-76469976D01*
X91824767Y-76596678D01*
X92645523Y-75775921D01*
X92733415Y-75896893D01*
X92878107Y-76041585D01*
X92999077Y-76129475D01*
X92178320Y-76950231D01*
X92305023Y-77051272D01*
X92538024Y-77197677D01*
X92785940Y-77317067D01*
X92785954Y-77317073D01*
X93045672Y-77407953D01*
X93045684Y-77407957D01*
X93313959Y-77469188D01*
X93313975Y-77469190D01*
X93587406Y-77499999D01*
X93587407Y-77500000D01*
X93862593Y-77500000D01*
X93862593Y-77499999D01*
X94136024Y-77469190D01*
X94136040Y-77469188D01*
X94404315Y-77407957D01*
X94404327Y-77407953D01*
X94664045Y-77317073D01*
X94664059Y-77317067D01*
X94911975Y-77197677D01*
X95144976Y-77051273D01*
X95271678Y-76950230D01*
X94450922Y-76129475D01*
X94571893Y-76041585D01*
X94716585Y-75896893D01*
X94804475Y-75775923D01*
X95625230Y-76596678D01*
X95726273Y-76469976D01*
X95872677Y-76236975D01*
X95992067Y-75989059D01*
X95992073Y-75989045D01*
X96082953Y-75729327D01*
X96082957Y-75729315D01*
X96144188Y-75461040D01*
X96144190Y-75461024D01*
X96174999Y-75187593D01*
X96175000Y-75187593D01*
X96175000Y-74933634D01*
X96449500Y-74933634D01*
X96449500Y-75166365D01*
X96449501Y-75166382D01*
X96462632Y-75266127D01*
X96479879Y-75397126D01*
X96534243Y-75600016D01*
X96540120Y-75621947D01*
X96629180Y-75836960D01*
X96629188Y-75836976D01*
X96745553Y-76038524D01*
X96745564Y-76038540D01*
X96887242Y-76223179D01*
X96887248Y-76223186D01*
X97051813Y-76387751D01*
X97051819Y-76387756D01*
X97236468Y-76529442D01*
X97236475Y-76529446D01*
X97438023Y-76645811D01*
X97438039Y-76645819D01*
X97653052Y-76734879D01*
X97653054Y-76734879D01*
X97653060Y-76734882D01*
X97877874Y-76795121D01*
X98108628Y-76825500D01*
X98108635Y-76825500D01*
X98341365Y-76825500D01*
X98341372Y-76825500D01*
X98572126Y-76795121D01*
X98796940Y-76734882D01*
X98854953Y-76710852D01*
X99011960Y-76645819D01*
X99011963Y-76645817D01*
X99011969Y-76645815D01*
X99213532Y-76529442D01*
X99398181Y-76387756D01*
X99562756Y-76223181D01*
X99704442Y-76038532D01*
X99820815Y-75836969D01*
X99831011Y-75812355D01*
X99909879Y-75621947D01*
X99909878Y-75621947D01*
X99909882Y-75621940D01*
X99970121Y-75397126D01*
X100000500Y-75166372D01*
X100000500Y-74933628D01*
X99970121Y-74702874D01*
X99909882Y-74478060D01*
X99864564Y-74368651D01*
X99820819Y-74263039D01*
X99820811Y-74263023D01*
X99704446Y-74061475D01*
X99704442Y-74061468D01*
X99562756Y-73876819D01*
X99562751Y-73876813D01*
X99398186Y-73712248D01*
X99398179Y-73712242D01*
X99213540Y-73570564D01*
X99213538Y-73570562D01*
X99213532Y-73570558D01*
X99213527Y-73570555D01*
X99213524Y-73570553D01*
X99011976Y-73454188D01*
X99011960Y-73454180D01*
X98796947Y-73365120D01*
X98591237Y-73310000D01*
X98572126Y-73304879D01*
X98572125Y-73304878D01*
X98572122Y-73304878D01*
X98341382Y-73274501D01*
X98341377Y-73274500D01*
X98341372Y-73274500D01*
X98108628Y-73274500D01*
X98108622Y-73274500D01*
X98108617Y-73274501D01*
X97877877Y-73304878D01*
X97653052Y-73365120D01*
X97438039Y-73454180D01*
X97438023Y-73454188D01*
X97236475Y-73570553D01*
X97236459Y-73570564D01*
X97051820Y-73712242D01*
X97051813Y-73712248D01*
X96887248Y-73876813D01*
X96887242Y-73876820D01*
X96745564Y-74061459D01*
X96745553Y-74061475D01*
X96629188Y-74263023D01*
X96629180Y-74263039D01*
X96540120Y-74478052D01*
X96479878Y-74702877D01*
X96449501Y-74933617D01*
X96449500Y-74933634D01*
X96175000Y-74933634D01*
X96175000Y-74912407D01*
X96174999Y-74912406D01*
X96144190Y-74638975D01*
X96144188Y-74638959D01*
X96082957Y-74370684D01*
X96082953Y-74370672D01*
X95992073Y-74110954D01*
X95992067Y-74110940D01*
X95872677Y-73863024D01*
X95726272Y-73630023D01*
X95625231Y-73503320D01*
X94804474Y-74324076D01*
X94716585Y-74203107D01*
X94571893Y-74058415D01*
X94450921Y-73970523D01*
X95271678Y-73149767D01*
X95144976Y-73048727D01*
X94911975Y-72902322D01*
X94664059Y-72782932D01*
X94664045Y-72782926D01*
X94404327Y-72692046D01*
X94404315Y-72692042D01*
X94136040Y-72630811D01*
X94136024Y-72630809D01*
X93862593Y-72600000D01*
X93587407Y-72600000D01*
X93313975Y-72630809D01*
X93313959Y-72630811D01*
X93045684Y-72692042D01*
X93045672Y-72692046D01*
X92785954Y-72782926D01*
X92785940Y-72782932D01*
X92538024Y-72902322D01*
X92305029Y-73048723D01*
X92178321Y-73149768D01*
X92999077Y-73970524D01*
X92878107Y-74058415D01*
X92733415Y-74203107D01*
X92645524Y-74324077D01*
X91824768Y-73503321D01*
X91723721Y-73630031D01*
X91659046Y-73732960D01*
X91606711Y-73779251D01*
X91537658Y-73789898D01*
X91473810Y-73761523D01*
X91435438Y-73703133D01*
X91430054Y-73667089D01*
X91427191Y-69947086D01*
X91427165Y-69912406D01*
X95775000Y-69912406D01*
X95775000Y-70187593D01*
X95805809Y-70461024D01*
X95805811Y-70461040D01*
X95867042Y-70729315D01*
X95867046Y-70729327D01*
X95957926Y-70989045D01*
X95957932Y-70989059D01*
X96077322Y-71236975D01*
X96223727Y-71469976D01*
X96324767Y-71596678D01*
X97145523Y-70775921D01*
X97233415Y-70896893D01*
X97378107Y-71041585D01*
X97499077Y-71129475D01*
X96678320Y-71950231D01*
X96805023Y-72051272D01*
X97038024Y-72197677D01*
X97285940Y-72317067D01*
X97285954Y-72317073D01*
X97545672Y-72407953D01*
X97545684Y-72407957D01*
X97813959Y-72469188D01*
X97813975Y-72469190D01*
X98087406Y-72499999D01*
X98087407Y-72500000D01*
X98362593Y-72500000D01*
X98362593Y-72499999D01*
X98636024Y-72469190D01*
X98636040Y-72469188D01*
X98904315Y-72407957D01*
X98904327Y-72407953D01*
X99164045Y-72317073D01*
X99164059Y-72317067D01*
X99411975Y-72197677D01*
X99644976Y-72051273D01*
X99771678Y-71950230D01*
X98950922Y-71129475D01*
X99071893Y-71041585D01*
X99216585Y-70896893D01*
X99304475Y-70775922D01*
X100125230Y-71596678D01*
X100226273Y-71469976D01*
X100372677Y-71236975D01*
X100492067Y-70989059D01*
X100492073Y-70989045D01*
X100582953Y-70729327D01*
X100582957Y-70729315D01*
X100644188Y-70461040D01*
X100644190Y-70461024D01*
X100674999Y-70187593D01*
X100675000Y-70187593D01*
X100675000Y-69912407D01*
X100674999Y-69912406D01*
X100644190Y-69638975D01*
X100644188Y-69638959D01*
X100582957Y-69370684D01*
X100582953Y-69370672D01*
X100492073Y-69110954D01*
X100492067Y-69110940D01*
X100372677Y-68863024D01*
X100226272Y-68630023D01*
X100125231Y-68503320D01*
X99304474Y-69324076D01*
X99216585Y-69203107D01*
X99071893Y-69058415D01*
X98950921Y-68970523D01*
X99771678Y-68149767D01*
X99644976Y-68048727D01*
X99411975Y-67902322D01*
X99164059Y-67782932D01*
X99164045Y-67782926D01*
X98904327Y-67692046D01*
X98904315Y-67692042D01*
X98636040Y-67630811D01*
X98636024Y-67630809D01*
X98362593Y-67600000D01*
X98087407Y-67600000D01*
X97813975Y-67630809D01*
X97813959Y-67630811D01*
X97545684Y-67692042D01*
X97545672Y-67692046D01*
X97285954Y-67782926D01*
X97285940Y-67782932D01*
X97038024Y-67902322D01*
X96805029Y-68048723D01*
X96678321Y-68149768D01*
X97499077Y-68970524D01*
X97378107Y-69058415D01*
X97233415Y-69203107D01*
X97145524Y-69324077D01*
X96324768Y-68503321D01*
X96223723Y-68630029D01*
X96077322Y-68863024D01*
X95957932Y-69110940D01*
X95957926Y-69110954D01*
X95867046Y-69370672D01*
X95867042Y-69370684D01*
X95805811Y-69638959D01*
X95805809Y-69638975D01*
X95775000Y-69912406D01*
X91427165Y-69912406D01*
X91427162Y-69909027D01*
X91425846Y-68198309D01*
X91425096Y-67224095D01*
X91444729Y-67157041D01*
X91497498Y-67111245D01*
X91549096Y-67100000D01*
X104857433Y-67100000D01*
X104924472Y-67119685D01*
G37*
%TD.AperFunction*%
%TD*%
M02*
