M48
; DRILL file {KiCad 9.0.0} date 2025-04-14T20:17:44-0700
; FORMAT={-:-/ absolute / inch / decimal}
; #@! TF.CreationDate,2025-04-14T20:17:44-07:00
; #@! TF.GenerationSoftware,Kicad,Pcbnew,9.0.0
; #@! TF.FileFunction,Plated,1,2,PTH
FMAT,2
INCH
; #@! TA.AperFunction,Plated,PTH,ViaDrill
T1C0.0118
; #@! TA.AperFunction,Plated,PTH,ViaDrill
T2C0.0157
; #@! TA.AperFunction,Plated,PTH,ComponentDrill
T3C0.0287
; #@! TA.AperFunction,Plated,PTH,ComponentDrill
T4C0.0394
; #@! TA.AperFunction,Plated,PTH,ComponentDrill
T5C0.0417
; #@! TA.AperFunction,Plated,PTH,ComponentDrill
T6C0.0669
; #@! TA.AperFunction,Plated,PTH,ComponentDrill
T7C0.1024
; #@! TA.AperFunction,Plated,PTH,ComponentDrill
T8C0.1260
%
G90
G05
T1
X4.247Y-3.6594
X4.6191Y-3.2835
X4.6624Y-3.3878
X4.7972Y-3.5413
X4.9596Y-3.815
X4.9734Y-3.4626
X5.0285Y-3.2776
X5.0431Y-3.8158
X5.0994Y-3.2776
X5.1281Y-3.6567
X5.1526Y-3.748
X5.1959Y-3.5256
X5.2431Y-3.372
X5.2904Y-3.6654
X5.3356Y-3.5443
X5.4104Y-3.7224
X5.5522Y-3.1969
X5.5915Y-3.9134
X5.5915Y-4.0492
X5.5935Y-3.5098
X5.7096Y-3.6831
X5.7096Y-3.7224
X5.8671Y-3.9862
X5.8681Y-3.5335
X5.9045Y-3.9626
X6.123Y-3.1969
T2
X4.2242Y-3.1016
X4.324Y-3.1006
X4.3632Y-3.4626
X4.374Y-3.6191
X4.6073Y-3.6988
X4.8297Y-3.3937
X5.1644Y-4.8071
X5.253Y-4.4843
X5.2766Y-4.3602
X5.5935Y-4.6083
X6.0207Y-3.5079
X6.1624Y-4.0866
X7.0738Y-3.7756
X7.3986Y-3.5138
X7.3986Y-4.1339
T3
X6.4766Y-3.4547
X6.4766Y-3.5547
X6.4766Y-3.6547
X6.4766Y-3.7547
X6.7892Y-3.4547
X6.7892Y-3.5547
X6.7892Y-3.6547
X6.7892Y-3.7547
T4
X4.7126Y-4.437
X4.7126Y-4.5354
X4.986Y-3.9587
X4.986Y-4.0587
X5.086Y-3.9587
X5.086Y-4.0587
X5.186Y-3.9587
X5.186Y-4.0587
X7.7175Y-2.9449
X7.8159Y-2.9449
T5
X6.392Y-4.4518
X6.492Y-4.4518
X6.592Y-4.4518
T6
X3.8671Y-2.9547
X3.8691Y-3.8012
X3.8701Y-4.8957
T7
X3.69Y-2.9547
X3.6919Y-3.8012
X3.6929Y-4.8957
X3.8671Y-2.7579
X3.8671Y-3.1516
X3.8691Y-3.6043
X3.8691Y-3.998
X3.8701Y-4.6988
X3.8701Y-5.0925
T8
X4.4508Y-5.1004
X4.4803Y-2.7854
X7.2756Y-2.7854
X7.2756Y-4.5453
M30
